<?xml version="1.0" encoding="UTF-8"?><svg id="a" xmlns="http://www.w3.org/2000/svg" viewBox="0 0 107.98 107.64"><defs><style>.b{fill:#fff;}</style></defs><path class="b" d="M17.13,26.56c1.21-1.77,2.72-3.29,4.15-4.89,.76-.75,1.58-1.44,2.36-2.17,.4-.36,.78-.73,1.19-1.07l1.29-.96c3.35-2.67,7.18-4.68,11.13-6.28l-2.92-7.45c-4.65,1.87-9.13,4.25-13.07,7.37l-1.5,1.13c-.48,.4-.94,.83-1.4,1.25-.92,.85-1.88,1.67-2.76,2.55-1.68,1.86-3.44,3.66-4.87,5.73l6.41,4.78Z"/><path class="b" d="M47.55,8.5l1.58-.25c.53-.06,1.07-.06,1.6-.09l3.21-.17,3.21,.16,1.6,.08,1.58,.25,1.1-7.92-1.86-.28-1.88-.11-3.76-.18-3.76,.19c-.63,.04-1.25,.05-1.88,.12l-1.86,.28,1.11,7.92Z"/><path class="b" d="M70.65,11.16c.5,.19,1.02,.34,1.5,.57l1.44,.7,1.44,.69c.48,.23,.97,.45,1.42,.75l2.74,1.67c.47,.26,.89,.59,1.32,.91l1.28,.96,1.29,.96c.42,.33,.8,.71,1.2,1.07,.78,.73,1.6,1.43,2.36,2.17,1.42,1.6,2.95,3.11,4.15,4.88l6.4-4.8c-1.43-2.07-3.2-3.86-4.88-5.72-.9-.87-1.85-1.7-2.77-2.55-.47-.41-.92-.86-1.41-1.24l-1.5-1.13-1.51-1.13c-.5-.38-1-.76-1.55-1.07l-3.22-1.95c-.53-.34-1.1-.61-1.66-.88l-1.7-.82-1.7-.81c-.57-.27-1.17-.45-1.76-.68l-2.9,7.46Z"/><path class="b" d="M96.24,35.81c3.29,7.86,4.56,16.66,3.18,25.12l7.91,1.19c1.6-9.92,.14-20.23-3.74-29.48l-7.35,3.17Z"/><path class="b" d="M96.65,71.21l-.28,.75-.35,.72-.7,1.44c-.46,.96-.89,1.94-1.49,2.83l-1.66,2.74-1.92,2.57,6.31,4.92,2.25-3.02,1.96-3.22c.69-1.05,1.21-2.2,1.75-3.33l.82-1.7,.41-.85,.33-.88-7.42-2.99Z"/><path class="b" d="M82.77,89.88l-2.57,1.92c-.41,.34-.88,.6-1.34,.88l-1.37,.83-1.37,.84c-.46,.27-.96,.47-1.43,.71l-2.89,1.39c-2.02,.69-3.98,1.58-6.08,2.01l-1.55,.4c-.52,.14-1.03,.28-1.57,.33l-3.17,.48,.94,7.94,3.72-.57c.62-.07,1.23-.23,1.84-.39l1.82-.47c2.46-.53,4.78-1.53,7.14-2.37,1.14-.52,2.27-1.08,3.4-1.62,.56-.28,1.14-.52,1.68-.84l1.61-.97,1.61-.98c.54-.33,1.08-.64,1.57-1.04l3.01-2.25-5.01-6.24Z"/><path class="b" d="M48.63,99.69l-3.17-.48-.79-.12-.78-.2-1.55-.4c-2.1-.43-4.06-1.3-6.08-2-.98-.43-1.93-.92-2.89-1.38-.48-.24-.97-.45-1.44-.71l-1.37-.84c-.9-.58-1.86-1.06-2.71-1.71l-2.57-1.92-5,6.25,3.01,2.25c1.01,.75,2.12,1.34,3.18,2.01l1.61,.97c.55,.3,1.12,.56,1.69,.84,1.13,.54,2.25,1.11,3.4,1.61,2.36,.84,4.68,1.83,7.15,2.36l1.82,.47,.91,.23,.93,.15,3.72,.57,.92-7.95Z"/><path class="b" d="M17.78,82.34l-1.92-2.57-1.67-2.74c-.26-.46-.59-.9-.81-1.38l-.69-1.45-.7-1.44c-.24-.48-.47-.96-.64-1.47l-7.41,3.01c.2,.6,.47,1.16,.75,1.73l.82,1.7,.82,1.69c.26,.57,.63,1.08,.94,1.63l1.96,3.21,2.25,3.02,6.3-4.93Z"/><path class="b" d="M8.56,61.01c-1.4-8.46-.14-17.25,3.13-25.13l-7.35-3.16C.48,41.99-.96,52.3,.65,62.22l7.91-1.21Z"/></svg>