<?xml version="1.0" encoding="utf-8"?>
<!-- Generator: Adobe Illustrator 26.2.0, SVG Export Plug-In . SVG Version: 6.00 Build 0)  -->
<svg version="1.1" id="a" xmlns="http://www.w3.org/2000/svg" xmlns:xlink="http://www.w3.org/1999/xlink" x="0px" y="0px"
	 viewBox="0 0 100 100" style="enable-background:new 0 0 100 100;" xml:space="preserve">
<style type="text/css">
	.st0{fill:#C5C5C5;}
</style>
<g>
	<path class="st0" d="M56.9,4.5l0.5-2.9L58,1.7l-0.5,2.9L56.9,4.5z M57.6,3.4l0.1-0.6l1.4,0.3l-0.1,0.6L57.6,3.4z M58.7,4.8L59.3,2
		l0.6,0.1l-0.5,2.9L58.7,4.8z"/>
	<path class="st0" d="M60.3,2.7l0.1-0.6l2.2,0.5l-0.1,0.6L60.3,2.7z M60.6,5.2l0.6-2.4L61.8,3l-0.6,2.4L60.6,5.2z"/>
	<path class="st0" d="M62.3,5.6l0.9-2.8l0.9,0.3l0.1,1.8l0.1,0l1.1-1.4l0.9,0.3l-0.9,2.8l-0.6-0.2L65.6,4l0.1,0l-1.3,1.6l-0.6-0.2
		l-0.2-2l0.1,0l-0.8,2.4L62.3,5.6z"/>
	<path class="st0" d="M66,6.9l1.1-2.7l0.6,0.2l-1.1,2.7L66,6.9z M66.5,7.1l0.2-0.5L67.9,7l-0.2,0.5L66.5,7.1z"/>
	<path class="st0" d="M67.7,7.8L69.8,5l0.6,0.3l-2.1,2.7L67.7,7.8z"/>
	<path class="st0" d="M70.7,9c-0.2-0.1-0.4-0.3-0.5-0.4C70,8.4,69.9,8.2,69.9,8c0-0.2,0-0.4,0-0.6S70,7.1,70,7l0-0.1
		c0.1-0.2,0.2-0.3,0.3-0.4c0.1-0.1,0.3-0.2,0.5-0.3C71,6.1,71.2,6,71.4,6c0.2,0,0.4,0.1,0.6,0.2c0.2,0.1,0.4,0.3,0.6,0.4
		c0.1,0.2,0.2,0.4,0.2,0.6c0,0.2,0,0.4-0.1,0.6l-0.6-0.3c0-0.1,0-0.2,0-0.3c0-0.1-0.1-0.2-0.1-0.3c-0.1-0.1-0.2-0.2-0.3-0.2
		c-0.1-0.1-0.2-0.1-0.3-0.1c-0.1,0-0.2,0-0.3,0.1c-0.1,0-0.2,0.1-0.3,0.2c-0.1,0.1-0.2,0.2-0.2,0.3c-0.1,0.1-0.1,0.2-0.1,0.4
		c0,0.1,0,0.2,0,0.3s0.1,0.2,0.1,0.3c0.1,0.1,0.2,0.2,0.3,0.2c0.2,0.1,0.4,0.1,0.5,0.1c0.2,0,0.3-0.1,0.4-0.3l0.6,0.3
		C72.4,8.8,72.2,8.9,72,9c-0.2,0.1-0.4,0.2-0.6,0.2S70.9,9.1,70.7,9z"/>
	<path class="st0" d="M73.2,10.3c-0.2-0.1-0.4-0.3-0.5-0.4s-0.2-0.3-0.2-0.5c0-0.2,0-0.3,0.1-0.5l0.5,0.3c0,0.1-0.1,0.1-0.1,0.2
		c0,0.1,0,0.2,0.1,0.2c0.1,0.1,0.1,0.1,0.3,0.2c0.1,0.1,0.2,0.1,0.3,0.1s0.2,0,0.2,0c0.1,0,0.1-0.1,0.2-0.1c0-0.1,0.1-0.2,0-0.3
		c0-0.1-0.1-0.2-0.3-0.3l-0.2-0.1c-0.2-0.2-0.4-0.4-0.5-0.6c-0.1-0.2,0-0.4,0.1-0.7c0.1-0.2,0.2-0.3,0.4-0.3
		c0.1-0.1,0.3-0.1,0.5-0.1c0.2,0,0.4,0.1,0.5,0.2c0.2,0.1,0.3,0.2,0.4,0.4c0.1,0.2,0.2,0.3,0.2,0.5s0,0.3-0.1,0.5l-0.6-0.3
		c0-0.1,0.1-0.1,0.1-0.2c0-0.1,0-0.1-0.1-0.2c0-0.1-0.1-0.1-0.2-0.2c-0.1,0-0.2-0.1-0.2-0.1c-0.1,0-0.1,0-0.2,0
		c-0.1,0-0.1,0.1-0.1,0.1c0,0.1-0.1,0.1,0,0.2s0.1,0.2,0.2,0.2l0.2,0.1c0.2,0.1,0.3,0.3,0.4,0.4c0.1,0.1,0.2,0.3,0.2,0.5
		s0,0.3-0.1,0.5c-0.1,0.2-0.2,0.3-0.4,0.3c-0.2,0.1-0.3,0.1-0.5,0.1S73.4,10.5,73.2,10.3z"/>
	<path class="st0" d="M75.4,11.7c-0.2-0.1-0.4-0.3-0.5-0.5s-0.2-0.3-0.2-0.5c0-0.2,0.1-0.3,0.2-0.5l0.5,0.4c0,0.1-0.1,0.1-0.1,0.2
		s0,0.2,0.1,0.2c0,0.1,0.1,0.2,0.2,0.2c0.1,0.1,0.2,0.1,0.3,0.1c0.1,0,0.2,0,0.2,0c0.1,0,0.1-0.1,0.2-0.1c0.1-0.1,0.1-0.2,0-0.3
		c0-0.1-0.1-0.2-0.3-0.3L76,10.6c-0.2-0.2-0.4-0.4-0.4-0.6s0-0.4,0.1-0.7C75.8,9.1,75.9,9,76,9c0.1-0.1,0.3-0.1,0.5-0.1
		c0.2,0,0.4,0.1,0.5,0.2c0.2,0.1,0.3,0.3,0.4,0.4c0.1,0.2,0.1,0.3,0.1,0.5s-0.1,0.3-0.2,0.5l-0.5-0.4c0-0.1,0.1-0.1,0.1-0.2
		c0-0.1,0-0.1,0-0.2s-0.1-0.1-0.2-0.2c-0.1-0.1-0.2-0.1-0.2-0.1c-0.1,0-0.1,0-0.2,0c-0.1,0-0.1,0.1-0.1,0.1c0,0.1-0.1,0.1,0,0.2
		c0,0.1,0.1,0.2,0.2,0.2l0.2,0.1c0.2,0.1,0.3,0.3,0.4,0.4c0.1,0.2,0.1,0.3,0.2,0.5c0,0.2,0,0.3-0.1,0.5c-0.1,0.2-0.2,0.3-0.4,0.3
		C76.4,12,76.2,12,76,12C75.8,12,75.6,11.9,75.4,11.7z"/>
	<path class="st0" d="M79.4,14.6l1.9-2.2L82,13l-0.6,1.7l0.1,0.1l1.6-0.8l0.7,0.6l-1.9,2.2l-0.5-0.4l1.7-1.9l0.1,0.1l-1.8,0.9
		L80.8,15l0.7-1.9l0.1,0.1L79.9,15L79.4,14.6z"/>
	<path class="st0" d="M81.6,17.8l0.4-0.4l0.3,0.3c0,0,0.1,0.1,0.1,0.1c0,0,0.1,0,0.1,0c0,0,0.1,0,0.2-0.1l2-1.2l0.4,0.4L83,18.2
		c-0.2,0.1-0.3,0.1-0.4,0.2c-0.1,0-0.2,0-0.4-0.1c-0.1-0.1-0.2-0.2-0.4-0.3L81.6,17.8z M82.5,17.4l1.1-2l0.5,0.5l-1.1,2L82.5,17.4z
		 M82.7,17.6l0.4-0.4l0.3,0.3L83,17.9L82.7,17.6z"/>
	<path class="st0" d="M84.4,19.6c-0.2-0.2-0.3-0.4-0.3-0.6c-0.1-0.2-0.1-0.4,0-0.5c0-0.2,0.1-0.3,0.3-0.4l0.4,0.5
		c-0.1,0-0.1,0.1-0.1,0.2s0,0.2,0,0.2c0,0.1,0.1,0.2,0.2,0.3c0.1,0.1,0.2,0.2,0.2,0.2c0.1,0,0.2,0.1,0.2,0.1s0.1,0,0.2-0.1
		c0.1-0.1,0.1-0.1,0.1-0.2c0-0.1-0.1-0.2-0.2-0.4l-0.1-0.2c-0.2-0.2-0.3-0.5-0.3-0.7c0-0.2,0.1-0.4,0.3-0.6c0.1-0.1,0.3-0.2,0.5-0.2
		c0.2,0,0.3,0,0.5,0.1c0.2,0.1,0.3,0.2,0.5,0.4c0.2,0.2,0.3,0.3,0.3,0.5c0,0.2,0,0.3,0,0.5c0,0.2-0.1,0.3-0.3,0.4l-0.4-0.5
		c0.1,0,0.1-0.1,0.1-0.2c0-0.1,0-0.1,0-0.2c0-0.1-0.1-0.2-0.1-0.2c-0.1-0.1-0.1-0.1-0.2-0.1c-0.1,0-0.1,0-0.2,0
		c-0.1,0-0.1,0-0.2,0.1c-0.1,0.1-0.1,0.1-0.1,0.2c0,0.1,0,0.2,0.1,0.3l0.1,0.2c0.1,0.2,0.2,0.3,0.3,0.5s0.1,0.3,0,0.5
		c0,0.2-0.1,0.3-0.3,0.4c-0.1,0.1-0.3,0.2-0.5,0.2c-0.2,0-0.3,0-0.5-0.1C84.8,19.9,84.6,19.8,84.4,19.6z"/>
	<path class="st0" d="M86.1,22.9c-0.1-0.1-0.2-0.3-0.2-0.4c0-0.1,0-0.3,0-0.4c0-0.1,0.1-0.3,0.3-0.4l0.4-0.3l0.4,0.5l-0.4,0.3
		c-0.1,0-0.1,0.1-0.1,0.2s0,0.1,0.1,0.2l0.3,0.3l-0.4,0.3L86.1,22.9z M86.3,21.9c-0.2-0.2-0.3-0.4-0.3-0.6c0-0.2-0.1-0.4,0-0.6
		s0.1-0.4,0.2-0.5c0.1-0.2,0.2-0.3,0.3-0.4l0.1-0.1c0.1-0.1,0.3-0.2,0.5-0.3c0.2-0.1,0.4-0.1,0.6-0.1c0.2,0,0.4,0.1,0.6,0.2
		c0.2,0.1,0.4,0.3,0.5,0.5c0.2,0.2,0.3,0.4,0.3,0.6s0.1,0.4,0,0.6s-0.1,0.4-0.2,0.5s-0.2,0.3-0.4,0.4l-0.1,0.1
		c-0.1,0.1-0.3,0.2-0.5,0.2c-0.2,0.1-0.4,0.1-0.6,0.1c-0.2,0-0.4-0.1-0.6-0.2C86.7,22.3,86.5,22.1,86.3,21.9z M86.8,21.5
		c0.1,0.1,0.2,0.2,0.3,0.3c0.1,0.1,0.2,0.1,0.3,0.1c0.1,0,0.2,0,0.3,0c0.1,0,0.2-0.1,0.3-0.2c0.1-0.1,0.2-0.2,0.3-0.3
		s0.1-0.2,0.1-0.3c0-0.1,0-0.2,0-0.3s-0.1-0.2-0.2-0.3c-0.1-0.1-0.2-0.2-0.3-0.3c-0.1-0.1-0.2-0.1-0.3-0.1c-0.1,0-0.2,0-0.3,0
		c-0.1,0-0.2,0.1-0.3,0.2c-0.1,0.1-0.2,0.2-0.2,0.3c-0.1,0.1-0.1,0.2-0.1,0.3c0,0.1,0,0.2,0,0.3C86.7,21.3,86.7,21.4,86.8,21.5z"/>
	<path class="st0" d="M87.6,23.5l2.4-1.6l0.4,0.5L88,24L87.6,23.5z M87.9,24l0.5-0.3l0.7,1L88.6,25L87.9,24z"/>
	<path class="st0" d="M90.1,27.5l2.6-1.4l0.3,0.6L90.4,28L90.1,27.5z M91.1,27.6l0.5-0.3l0.2,0.5c0,0.1,0.1,0.2,0.2,0.2
		c0.1,0,0.1,0.1,0.2,0.1c0.1,0,0.2,0,0.3-0.1c0.1,0,0.2-0.1,0.2-0.2s0.1-0.1,0.1-0.2c0-0.1,0-0.2-0.1-0.3l-0.2-0.5l0.5-0.3l0.2,0.4
		c0.1,0.2,0.2,0.4,0.2,0.6c0,0.2,0,0.4-0.1,0.5c-0.1,0.2-0.2,0.3-0.4,0.4l-0.1,0c-0.2,0.1-0.4,0.1-0.5,0.1s-0.3-0.1-0.5-0.2
		c-0.2-0.1-0.3-0.3-0.4-0.5L91.1,27.6z"/>
	<path class="st0" d="M91.4,29.8l2.7-1.2l0.3,0.6l-2.7,1.2L91.4,29.8z M92.1,31.5l2.7-1.2l0.3,0.6l-2.7,1.2L92.1,31.5z M92.6,29.8
		l0.5-0.2l0.6,1.3l-0.5,0.2L92.6,29.8z"/>
	<path class="st0" d="M92.6,32.7l2.8-1l0.2,0.6l-2.8,1L92.6,32.7z M93.6,32.9l0.5-0.2l0.2,0.5c0,0.1,0.1,0.2,0.1,0.2
		c0.1,0.1,0.1,0.1,0.2,0.1c0.1,0,0.2,0,0.3,0c0.1,0,0.2-0.1,0.2-0.1c0.1-0.1,0.1-0.1,0.1-0.2c0-0.1,0-0.2,0-0.3l-0.2-0.5l0.5-0.2
		l0.2,0.5c0.1,0.2,0.1,0.4,0.1,0.6s-0.1,0.4-0.2,0.5s-0.3,0.3-0.5,0.3l-0.1,0c-0.2,0.1-0.4,0.1-0.6,0.1c-0.2,0-0.3-0.1-0.5-0.3
		c-0.1-0.1-0.3-0.3-0.3-0.6L93.6,32.9z"/>
	<path class="st0" d="M94.2,37.6c-0.1-0.2-0.1-0.4,0-0.6c0-0.2,0.1-0.3,0.3-0.5c0.1-0.1,0.3-0.2,0.5-0.3l0.1,0l0.2,0.6l-0.2,0
		c-0.1,0-0.2,0.1-0.3,0.2c-0.1,0.1-0.1,0.2,0,0.3c0,0.1,0.1,0.2,0.2,0.3c0.1,0.1,0.2,0.1,0.3,0l1.4-0.4l0.2,0.6l-1.4,0.4
		c-0.2,0.1-0.4,0.1-0.6,0c-0.2,0-0.3-0.1-0.5-0.3C94.4,38,94.3,37.8,94.2,37.6z M96.4,36.2l0.6-0.2l0.5,1.7L96.9,38L96.4,36.2z"/>
	<path class="st0" d="M94.9,40.2c-0.1-0.3-0.1-0.5,0-0.7c0-0.2,0.1-0.4,0.2-0.5s0.3-0.2,0.5-0.2l0.1,0.6c-0.1,0-0.1,0.1-0.2,0.1
		c-0.1,0.1-0.1,0.1-0.1,0.2c0,0.1,0,0.2,0,0.3c0,0.1,0.1,0.2,0.1,0.3c0,0.1,0.1,0.1,0.2,0.2c0.1,0,0.1,0,0.2,0
		c0.1,0,0.2-0.1,0.2-0.2s0-0.2,0-0.4l0-0.2c0-0.3,0-0.5,0.1-0.7c0.1-0.2,0.3-0.3,0.6-0.4c0.2,0,0.3,0,0.5,0c0.2,0.1,0.3,0.2,0.4,0.3
		c0.1,0.1,0.2,0.3,0.2,0.5c0,0.2,0.1,0.4,0,0.6c0,0.2-0.1,0.3-0.2,0.4c-0.1,0.1-0.3,0.2-0.5,0.2L97,40.1c0.1,0,0.1,0,0.2-0.1
		c0.1,0,0.1-0.1,0.1-0.2c0-0.1,0-0.2,0-0.3c0-0.1-0.1-0.2-0.1-0.2s-0.1-0.1-0.2-0.1c-0.1,0-0.1,0-0.2,0c-0.1,0-0.1,0.1-0.2,0.1
		c0,0.1-0.1,0.2,0,0.3l0,0.2c0,0.2,0,0.4,0,0.6c0,0.2-0.1,0.3-0.2,0.4c-0.1,0.1-0.2,0.2-0.4,0.2c-0.2,0-0.4,0-0.5,0
		c-0.2-0.1-0.3-0.2-0.4-0.3C95,40.6,94.9,40.4,94.9,40.2z"/>
	<path class="st0" d="M95,41.6l3.5,0.3l0.1,0.6l-3.5-0.3L95,41.6z"/>
	<path class="st0" d="M95.6,44.2c0-0.2,0-0.4,0.1-0.6s0.2-0.3,0.3-0.4c0.1-0.1,0.3-0.2,0.6-0.2l0.1,0l0.1,0.6l-0.2,0
		c-0.1,0-0.2,0.1-0.3,0.2c-0.1,0.1-0.1,0.2-0.1,0.3c0,0.1,0.1,0.2,0.2,0.3c0.1,0.1,0.2,0.1,0.3,0.1l1.5-0.2l0.1,0.7l-1.4,0.2
		c-0.2,0-0.4,0-0.6-0.1c-0.2-0.1-0.3-0.2-0.4-0.3C95.7,44.6,95.6,44.4,95.6,44.2z M97.9,43.2l0.6-0.1l0.2,1.8L98.1,45L97.9,43.2z"/>
	<path class="st0" d="M95.1,47.9c0-0.2,0-0.3,0-0.5c0-0.1,0.1-0.2,0.2-0.3c0.1-0.1,0.3-0.1,0.5-0.1l0.4,0l0,0.6l-0.5,0
		c-0.1,0-0.1,0-0.2,0.1c0,0-0.1,0.1-0.1,0.2l0,0.4l-0.5,0L95.1,47.9z M95.8,47.3c0-0.3,0-0.5,0.1-0.7c0.1-0.2,0.2-0.4,0.3-0.5
		c0.1-0.1,0.3-0.2,0.5-0.3c0.2-0.1,0.3-0.1,0.5-0.1l0.1,0c0.2,0,0.4,0,0.5,0.1c0.2,0.1,0.3,0.1,0.5,0.3c0.2,0.1,0.3,0.3,0.4,0.5
		c0.1,0.2,0.2,0.4,0.2,0.7c0,0.3,0,0.5-0.1,0.7c-0.1,0.2-0.2,0.4-0.3,0.5c-0.1,0.1-0.3,0.2-0.5,0.3c-0.2,0.1-0.4,0.1-0.5,0.1l-0.1,0
		c-0.2,0-0.3,0-0.5-0.1c-0.2-0.1-0.3-0.1-0.5-0.3c-0.2-0.1-0.3-0.3-0.4-0.5S95.9,47.5,95.8,47.3z M96.5,47.2c0,0.1,0,0.3,0.1,0.4
		c0.1,0.1,0.1,0.2,0.2,0.3c0.1,0.1,0.2,0.1,0.3,0.2c0.1,0,0.2,0,0.4,0c0.1,0,0.3,0,0.4-0.1c0.1,0,0.2-0.1,0.3-0.2s0.1-0.2,0.2-0.3
		c0-0.1,0.1-0.2,0-0.4c0-0.1,0-0.3-0.1-0.4c-0.1-0.1-0.1-0.2-0.2-0.3c-0.1-0.1-0.2-0.1-0.3-0.2s-0.2,0-0.4,0c-0.1,0-0.2,0-0.4,0.1
		c-0.1,0-0.2,0.1-0.3,0.2c-0.1,0.1-0.1,0.2-0.2,0.3C96.5,47,96.4,47.1,96.5,47.2z"/>
	<path class="st0" d="M95.9,50c0-0.3,0.1-0.4,0.3-0.6s0.4-0.2,0.7-0.2l1.3,0l0,0.6l-1.3,0c-0.1,0-0.2,0-0.3,0.1s-0.1,0.2-0.1,0.3
		c0,0.1,0,0.2,0.1,0.3c0.1,0.1,0.2,0.1,0.3,0.1l1.3,0l0,0.6l-2.2,0l0-0.5l0.9,0l0,0c-0.2,0-0.4,0-0.6-0.1c-0.1-0.1-0.3-0.1-0.3-0.3
		C96,50.3,95.9,50.2,95.9,50L95.9,50z"/>
	<path class="st0" d="M95.8,52.8c0-0.2,0.1-0.3,0.1-0.5s0.2-0.3,0.3-0.3c0.1-0.1,0.2-0.2,0.4-0.2c0.1,0,0.3-0.1,0.4,0l0.1,0
		c0.1,0,0.3,0,0.4,0.1c0.1,0.1,0.2,0.1,0.3,0.2c0.1,0.1,0.2,0.2,0.2,0.4c0.1,0.1,0.1,0.3,0.1,0.5c0,0.2-0.1,0.4-0.2,0.6
		c-0.1,0.2-0.3,0.3-0.4,0.3c-0.2,0.1-0.4,0.1-0.6,0.1l-0.2,0l0.1-1.9l0.4,0l-0.1,1.5L97,53.3c0.1,0,0.2,0,0.3,0
		c0.1,0,0.2-0.1,0.2-0.2c0.1-0.1,0.1-0.2,0.1-0.3c0-0.1,0-0.2-0.1-0.3s-0.1-0.1-0.2-0.2c-0.1,0-0.2-0.1-0.4-0.1c-0.1,0-0.2,0-0.3,0
		c-0.1,0-0.2,0.1-0.2,0.2c-0.1,0.1-0.1,0.2-0.1,0.3c0,0.1,0,0.2,0.1,0.3c0,0.1,0.1,0.1,0.2,0.2l0,0.6c-0.1,0-0.3-0.1-0.4-0.2
		c-0.1-0.1-0.2-0.2-0.2-0.4S95.8,53,95.8,52.8z"/>
	<path class="st0" d="M95.8,54.2l2.2,0.2L97.9,55L97,54.9l0,0c0.3,0,0.5,0.1,0.7,0.3s0.2,0.3,0.2,0.6l0,0.1l-0.5-0.1l0-0.2
		c0-0.2,0-0.3-0.1-0.4C97.2,55.1,97,55,96.9,55l-1.1-0.1L95.8,54.2z"/>
	<path class="st0" d="M94.8,55.8l0.5,0.1l-0.1,0.5c0,0.1,0,0.1,0,0.2c0,0,0,0.1,0.1,0.1c0,0,0.1,0.1,0.2,0.1l2.1,0.9l-0.1,0.6
		l-2.3-1c-0.2-0.1-0.3-0.1-0.4-0.2c-0.1-0.1-0.1-0.2-0.2-0.3c0-0.1,0-0.3,0-0.5L94.8,55.8z M95.6,56.6l0.5,0.1L96,57.1l-0.5-0.1
		L95.6,56.6z M95.6,56.4l2.2-0.4l-0.1,0.6L95.5,57L95.6,56.4z"/>
	<path class="st0" d="M94.3,62c0.1-0.3,0.2-0.5,0.3-0.6s0.3-0.3,0.5-0.4c0.2-0.1,0.4-0.1,0.5-0.1c0.2,0,0.4,0,0.5,0l0.1,0
		c0.2,0,0.3,0.1,0.5,0.2c0.2,0.1,0.3,0.2,0.4,0.4c0.1,0.2,0.2,0.3,0.2,0.5c0,0.2,0,0.4,0,0.7c-0.1,0.3-0.2,0.5-0.3,0.6
		c-0.1,0.2-0.3,0.3-0.5,0.4c-0.2,0.1-0.4,0.1-0.6,0l0.2-0.6c0.1,0,0.2,0,0.3,0s0.2-0.1,0.2-0.2c0.1-0.1,0.1-0.2,0.2-0.3
		c0-0.1,0-0.2,0-0.3c0-0.1-0.1-0.2-0.1-0.3s-0.1-0.2-0.2-0.2c-0.1-0.1-0.2-0.1-0.3-0.1c-0.1,0-0.3-0.1-0.4,0c-0.1,0-0.2,0-0.3,0.1
		c-0.1,0-0.2,0.1-0.3,0.2C95,61.9,95,62,94.9,62.1c0,0.2-0.1,0.3,0,0.5c0,0.1,0.1,0.3,0.2,0.4l-0.4-0.2l0.7,0.2l-0.2,0.6l-0.6-0.2
		c-0.2-0.2-0.3-0.4-0.3-0.6C94.3,62.5,94.3,62.2,94.3,62z M95.5,62.2l0.5,0.1l-0.4,1.6L95,63.7L95.5,62.2z"/>
	<path class="st0" d="M93.5,64.8c0.1-0.2,0.1-0.3,0.2-0.5c0.1-0.1,0.2-0.2,0.4-0.3c0.1-0.1,0.3-0.1,0.4-0.1c0.1,0,0.3,0,0.4,0.1
		l0.1,0c0.1,0,0.3,0.1,0.4,0.2s0.2,0.2,0.3,0.3s0.1,0.3,0.1,0.4c0,0.2,0,0.3-0.1,0.5c-0.1,0.2-0.1,0.3-0.2,0.5s-0.2,0.2-0.4,0.3
		c-0.1,0.1-0.3,0.1-0.4,0.1c-0.1,0-0.3,0-0.4-0.1l-0.1,0c-0.1,0-0.3-0.1-0.4-0.2s-0.2-0.2-0.3-0.3s-0.1-0.3-0.1-0.4
		C93.4,65.1,93.4,64.9,93.5,64.8z M94,64.9c0,0.1,0,0.2,0,0.3c0,0.1,0.1,0.2,0.2,0.3c0.1,0.1,0.2,0.1,0.3,0.2c0.1,0,0.2,0.1,0.3,0
		s0.2,0,0.3-0.1s0.1-0.1,0.2-0.3c0-0.1,0-0.2,0-0.3s-0.1-0.2-0.2-0.3c-0.1-0.1-0.2-0.1-0.3-0.2c-0.1,0-0.2-0.1-0.3,0
		c-0.1,0-0.2,0-0.3,0.1C94.1,64.7,94.1,64.8,94,64.9z"/>
	<path class="st0" d="M92.6,67.3c0.1-0.2,0.2-0.3,0.3-0.4c0.1-0.1,0.2-0.2,0.4-0.3c0.1-0.1,0.3-0.1,0.4-0.1c0.1,0,0.3,0,0.4,0.1
		l0.1,0c0.1,0.1,0.3,0.1,0.4,0.2c0.1,0.1,0.2,0.2,0.2,0.4s0.1,0.3,0.1,0.4s0,0.3-0.1,0.5c-0.1,0.2-0.2,0.3-0.3,0.4
		c-0.1,0.1-0.2,0.2-0.4,0.3c-0.1,0.1-0.3,0.1-0.4,0.1s-0.3,0-0.4-0.1l-0.1,0c-0.1-0.1-0.3-0.1-0.4-0.2c-0.1-0.1-0.2-0.2-0.2-0.4
		c-0.1-0.1-0.1-0.3-0.1-0.4C92.4,67.6,92.5,67.5,92.6,67.3z M93.1,67.5c0,0.1-0.1,0.2,0,0.3s0.1,0.2,0.1,0.3
		c0.1,0.1,0.2,0.1,0.3,0.2c0.1,0,0.2,0.1,0.3,0.1c0.1,0,0.2,0,0.3-0.1c0.1-0.1,0.1-0.1,0.2-0.3c0-0.1,0.1-0.2,0-0.3
		c0-0.1-0.1-0.2-0.1-0.3c-0.1-0.1-0.2-0.1-0.3-0.2c-0.1,0-0.2-0.1-0.3-0.1c-0.1,0-0.2,0-0.3,0.1C93.2,67.3,93.1,67.4,93.1,67.5z"/>
	<path class="st0" d="M90.8,69.2c0-0.1,0.1-0.2,0.2-0.3s0.1-0.2,0.2-0.3l0.5,0.2c-0.1,0.1-0.1,0.2-0.2,0.3c-0.1,0.1-0.1,0.2-0.1,0.3
		c-0.1,0.2-0.1,0.3-0.1,0.4c0,0.1,0,0.2,0.1,0.3c0.1,0.1,0.1,0.1,0.3,0.2l0.4,0.2l0.2,0.2c-0.2-0.1-0.3-0.2-0.4-0.3
		c-0.1-0.1-0.1-0.3-0.2-0.4c0-0.1,0-0.3,0.1-0.5c0.1-0.1,0.1-0.2,0.2-0.3s0.2-0.1,0.3-0.2c0.1,0,0.3,0,0.4,0s0.3,0.1,0.4,0.1l0.1,0
		c0.1,0.1,0.3,0.1,0.4,0.3c0.1,0.1,0.2,0.2,0.2,0.3c0,0.1,0.1,0.3,0.1,0.4s0,0.3-0.1,0.4c-0.1,0.2-0.2,0.3-0.3,0.4
		c-0.1,0.1-0.3,0.1-0.4,0.1s-0.3,0-0.5-0.1l0-0.1l0.9,0.4L93,71.7l-1.7-0.8c-0.2-0.1-0.4-0.3-0.5-0.4c-0.1-0.2-0.2-0.3-0.1-0.6
		C90.6,69.7,90.7,69.5,90.8,69.2z M92,70c0,0.1-0.1,0.2-0.1,0.3c0,0.1,0,0.2,0.1,0.3c0.1,0.1,0.1,0.1,0.2,0.2l0.1,0
		c0.1,0,0.2,0.1,0.3,0.1c0.1,0,0.2,0,0.2-0.1c0.1-0.1,0.1-0.1,0.2-0.2c0-0.1,0.1-0.2,0.1-0.3c0-0.1,0-0.2-0.1-0.3
		c-0.1-0.1-0.1-0.1-0.3-0.2c-0.1-0.1-0.2-0.1-0.3-0.1c-0.1,0-0.2,0-0.3,0.1C92.1,69.8,92.1,69.9,92,70z"/>
	<path class="st0" d="M90.8,71.3l2.6,1.4l-0.3,0.6l-2.6-1.4L90.8,71.3z M93.1,72.2l0.4,0.2l-0.4,0.8L92.7,73L93.1,72.2z"/>
	<path class="st0" d="M89.7,73.2c0.1-0.2,0.2-0.3,0.3-0.4c0.1-0.1,0.3-0.1,0.4-0.2c0.1,0,0.3,0,0.4,0c0.1,0,0.3,0.1,0.4,0.1l0.1,0
		c0.1,0.1,0.2,0.2,0.3,0.3c0.1,0.1,0.2,0.2,0.2,0.4c0,0.1,0.1,0.3,0,0.4s-0.1,0.3-0.2,0.5c-0.1,0.2-0.3,0.3-0.4,0.4
		c-0.2,0.1-0.4,0.1-0.5,0.1c-0.2,0-0.4-0.1-0.5-0.2L90,74.6l1-1.7l0.3,0.2l-0.8,1.3l0-0.3c0.1,0.1,0.2,0.1,0.3,0.1s0.2,0,0.3,0
		c0.1,0,0.1-0.1,0.2-0.2c0.1-0.1,0.1-0.2,0.1-0.3c0-0.1,0-0.2-0.1-0.3c-0.1-0.1-0.2-0.2-0.3-0.2c-0.1-0.1-0.2-0.1-0.3-0.1
		c-0.1,0-0.2,0-0.3,0c-0.1,0-0.2,0.1-0.2,0.2C90,73.5,90,73.6,90,73.7c0,0.1,0,0.2,0.1,0.2l-0.3,0.5c-0.1-0.1-0.2-0.2-0.2-0.4
		c-0.1-0.1-0.1-0.3-0.1-0.4C89.5,73.5,89.6,73.3,89.7,73.2z"/>
	<path class="st0" d="M88.7,75l1.8,2.5l-0.6,0.9l-3-0.8l0.4-0.6l2.5,0.7l-0.2,0.1l0.3-0.4l-0.1,0.2l-1.6-2.1L88.7,75z M88.9,76
		l0.3,0.5l-0.7,0.9L88,77.2L88.9,76z"/>
	<path class="st0" d="M86.2,78.3c0.1-0.1,0.2-0.2,0.3-0.3c0.1-0.1,0.3-0.1,0.4-0.1c0.1,0,0.3,0,0.4,0.1c0.1,0,0.3,0.1,0.4,0.2
		l0.1,0.1c0.1,0.1,0.2,0.2,0.3,0.3c0.1,0.1,0.1,0.2,0.2,0.4s0,0.3,0,0.4s-0.1,0.3-0.2,0.4c-0.1,0.1-0.2,0.2-0.4,0.3
		c-0.1,0.1-0.3,0.1-0.5,0c-0.2,0-0.3-0.1-0.5-0.2l0.2,0l1.2,0.9l-0.4,0.5l-2.3-1.8l0.3-0.4l0.7,0.6l-0.1,0.1
		c-0.2-0.1-0.3-0.3-0.3-0.4c-0.1-0.2-0.1-0.3-0.1-0.5S86,78.5,86.2,78.3z M86.5,78.8c-0.1,0.1-0.1,0.2-0.1,0.3c0,0.1,0,0.2,0,0.3
		s0.1,0.2,0.2,0.2l0.1,0.1c0.1,0.1,0.2,0.1,0.3,0.1c0.1,0,0.2,0,0.3,0c0.1,0,0.2-0.1,0.2-0.2c0.1-0.1,0.1-0.2,0.1-0.3
		c0-0.1,0-0.2-0.1-0.3c0-0.1-0.1-0.2-0.2-0.3c-0.1-0.1-0.2-0.1-0.3-0.2c-0.1,0-0.2,0-0.3,0C86.6,78.6,86.5,78.7,86.5,78.8z"/>
	<path class="st0" d="M84.4,80.4c0.2-0.2,0.4-0.4,0.6-0.4c0.2,0,0.4,0,0.6,0.1l-0.4,0.4c-0.1,0-0.1,0-0.2,0c-0.1,0-0.2,0.1-0.3,0.2
		c-0.1,0.1-0.1,0.2-0.1,0.2c0,0.1,0,0.1,0.1,0.2c0,0,0.1,0.1,0.2,0c0.1,0,0.2-0.1,0.3-0.2l0.1-0.1c0.2-0.2,0.4-0.3,0.6-0.3
		c0.2,0,0.3,0,0.5,0.2c0.1,0.1,0.2,0.2,0.2,0.3s0,0.3,0,0.4c-0.1,0.1-0.1,0.3-0.3,0.4c-0.2,0.2-0.4,0.3-0.6,0.4s-0.4,0-0.6-0.2
		l0.4-0.4c0.1,0,0.1,0.1,0.2,0c0.1,0,0.2-0.1,0.2-0.2c0.1-0.1,0.1-0.1,0.1-0.2c0-0.1,0-0.1-0.1-0.2c0,0-0.1-0.1-0.2,0
		c-0.1,0-0.1,0.1-0.2,0.1l-0.1,0.1c-0.2,0.2-0.4,0.3-0.6,0.3s-0.4,0-0.5-0.2c-0.1-0.1-0.2-0.2-0.2-0.3s0-0.3,0-0.4
		C84.2,80.7,84.3,80.6,84.4,80.4z"/>
	<path class="st0" d="M81.8,83.3l1.9,2.2L83.1,86l-1.6-0.8l-0.1,0.1L82,87l-0.7,0.6l-1.9-2.2l0.5-0.4l1.7,1.9l-0.1,0.1L80.8,85
		l0.5-0.4l1.8,0.9L83,85.5l-1.7-1.9L81.8,83.3z"/>
	<path class="st0" d="M78.1,86.3c0.1-0.1,0.3-0.2,0.4-0.2c0.2,0,0.3,0,0.4,0c0.1,0,0.3,0.1,0.4,0.2c0.1,0.1,0.2,0.2,0.3,0.3l0,0.1
		c0.1,0.1,0.2,0.2,0.2,0.4c0,0.1,0.1,0.3,0.1,0.4c0,0.1,0,0.3-0.1,0.4s-0.2,0.3-0.3,0.4c-0.2,0.1-0.4,0.2-0.6,0.2
		c-0.2,0-0.4,0-0.5-0.1c-0.2-0.1-0.3-0.2-0.4-0.4l-0.1-0.2l1.5-1.2l0.2,0.3l-1.2,1l0.1-0.3c0.1,0.1,0.2,0.2,0.2,0.2s0.2,0.1,0.3,0.1
		c0.1,0,0.2,0,0.3-0.1c0.1-0.1,0.1-0.1,0.2-0.2c0-0.1,0-0.2,0-0.3c0-0.1-0.1-0.2-0.2-0.3c-0.1-0.1-0.2-0.2-0.3-0.2
		c-0.1-0.1-0.2-0.1-0.3-0.1s-0.2,0-0.3,0.1c-0.1,0.1-0.2,0.1-0.2,0.2c0,0.1,0,0.2,0,0.2l-0.5,0.4c-0.1-0.1-0.1-0.3-0.1-0.4
		c0-0.1,0-0.3,0.1-0.4C77.8,86.6,78,86.4,78.1,86.3z"/>
	<path class="st0" d="M76.2,87.8c0.2-0.1,0.3-0.2,0.5-0.2c0.1,0,0.3,0,0.4,0.1c0.1,0.1,0.3,0.2,0.4,0.4l1.1,1.6l-0.5,0.3l-1.1-1.6
		c-0.1-0.1-0.1-0.1-0.2-0.1c-0.1,0-0.2,0-0.2,0.1l-0.3,0.2L75.9,88L76.2,87.8z M78.2,88.5l0.3,0.4l-1.3,0.9l-0.3-0.4L78.2,88.5z"/>
	<path class="st0" d="M74.5,89l0.4,0.5l0.1-0.1l0.4,0.6c0.1,0.1,0.1,0.2,0.2,0.2c0.1,0,0.2,0,0.3-0.1c0,0,0.1-0.1,0.2-0.1
		c0.1-0.1,0.2-0.1,0.2-0.2s0.2-0.1,0.2-0.2l0.3,0.5c0,0-0.1,0.1-0.2,0.1c-0.1,0-0.1,0.1-0.2,0.1c-0.1,0-0.1,0.1-0.2,0.1
		c-0.2,0.1-0.4,0.2-0.5,0.2c-0.2,0-0.3,0-0.5-0.1c-0.1-0.1-0.3-0.2-0.4-0.4L74,89.2L74.5,89z M75,88.5c0.1-0.1,0.3-0.1,0.4-0.2
		s0.3,0,0.4,0.1c0.1,0.1,0.2,0.1,0.3,0.3c0.1,0.1,0.1,0.3,0.1,0.4c0,0.1-0.1,0.3-0.2,0.4c-0.1,0.1-0.2,0.2-0.4,0.3l-0.4,0.3L75,89.8
		l0.4-0.3c0.1-0.1,0.2-0.1,0.2-0.2c0-0.1,0-0.2,0-0.2c0-0.1-0.1-0.1-0.2-0.1c-0.1,0-0.2,0-0.3,0.1c-0.1,0-0.1,0.1-0.1,0.1
		c0,0.1-0.1,0.1,0,0.2c0,0.1,0,0.2,0.1,0.2l-0.2-0.1c-0.1-0.1-0.1-0.3-0.1-0.4s0-0.2,0.1-0.3C74.8,88.7,74.9,88.6,75,88.5z"/>
	<path class="st0" d="M73.1,89.8l0.5,3l-0.9,0.5l-2.3-2.1l0.6-0.3l1.9,1.8l-0.2,0l0.5-0.2L73,92.7l-0.5-2.5L73.1,89.8z M72.8,90.8
		l0.1,0.6l-1,0.5l-0.4-0.4L72.8,90.8z"/>
	<path class="st0" d="M69.3,91.7c0.1-0.1,0.3-0.1,0.4-0.1s0.3,0,0.4,0.1s0.2,0.1,0.3,0.2c0.1,0.1,0.2,0.2,0.2,0.4l0,0.1
		c0.1,0.1,0.1,0.3,0.1,0.4c0,0.1,0,0.3,0,0.4c0,0.1-0.1,0.2-0.2,0.4s-0.2,0.2-0.3,0.3c-0.2,0.1-0.3,0.1-0.5,0.1s-0.3-0.1-0.4-0.2
		s-0.2-0.3-0.3-0.4l0.2,0.1l0.6,1.4l-0.6,0.3l-1.2-2.7l0.5-0.2l0.4,0.8l-0.1,0c-0.1-0.2-0.1-0.4-0.1-0.5c0-0.2,0.1-0.3,0.1-0.4
		C69.1,91.8,69.2,91.7,69.3,91.7z M69.4,92.2c-0.1,0-0.2,0.1-0.2,0.2c-0.1,0.1-0.1,0.2-0.1,0.3c0,0.1,0,0.2,0.1,0.3l0.1,0.1
		c0,0.1,0.1,0.2,0.2,0.2c0.1,0.1,0.2,0.1,0.3,0.1c0.1,0,0.2,0,0.3-0.1c0.1,0,0.2-0.1,0.2-0.2c0.1-0.1,0.1-0.2,0.1-0.3
		c0-0.1,0-0.2-0.1-0.3c-0.1-0.1-0.1-0.2-0.2-0.3c-0.1-0.1-0.2-0.1-0.3-0.1S69.5,92.2,69.4,92.2z"/>
	<path class="st0" d="M66.9,92.7c0.3-0.1,0.5-0.1,0.8-0.1c0.2,0.1,0.4,0.2,0.5,0.4l-0.5,0.2c0-0.1-0.1-0.1-0.2-0.1
		c-0.1,0-0.2,0-0.3,0c-0.1,0-0.2,0.1-0.2,0.2c-0.1,0.1-0.1,0.1,0,0.2c0,0.1,0.1,0.1,0.1,0.1s0.2,0,0.3,0l0.2,0
		c0.3-0.1,0.5-0.1,0.6,0c0.2,0.1,0.3,0.2,0.4,0.4c0.1,0.1,0.1,0.3,0,0.4c0,0.1-0.1,0.2-0.2,0.3c-0.1,0.1-0.2,0.2-0.4,0.2
		C67.5,95,67.3,95,67,95c-0.2-0.1-0.4-0.2-0.5-0.4l0.5-0.2c0,0.1,0.1,0.1,0.2,0.1c0.1,0,0.2,0,0.3,0c0.1,0,0.2-0.1,0.2-0.1
		c0-0.1,0-0.1,0-0.2c0-0.1-0.1-0.1-0.1-0.1c-0.1,0-0.1,0-0.3,0l-0.2,0c-0.3,0.1-0.5,0.1-0.7,0c-0.2-0.1-0.3-0.2-0.4-0.4
		c-0.1-0.1-0.1-0.3,0-0.4c0-0.1,0.1-0.2,0.2-0.4C66.5,92.9,66.7,92.8,66.9,92.7z"/>
	<path class="st0" d="M62.2,94.3c0.3-0.1,0.5-0.1,0.7-0.1c0.2,0,0.4,0.1,0.5,0.2c0.1,0.1,0.2,0.3,0.3,0.4L63,95.1
		c0-0.1-0.1-0.1-0.1-0.2s-0.1-0.1-0.2-0.1c-0.1,0-0.2,0-0.3,0c-0.1,0-0.2,0.1-0.3,0.1s-0.1,0.1-0.1,0.2c0,0.1,0,0.1,0,0.2
		c0,0.1,0.1,0.2,0.2,0.2c0.1,0,0.2,0,0.4,0l0.2,0c0.3-0.1,0.5,0,0.7,0.1c0.2,0.1,0.3,0.3,0.4,0.5c0,0.2,0,0.3,0,0.5
		c-0.1,0.2-0.1,0.3-0.3,0.4s-0.3,0.2-0.5,0.3c-0.2,0.1-0.4,0.1-0.6,0c-0.2,0-0.3-0.1-0.5-0.2s-0.2-0.3-0.3-0.4l0.6-0.2
		c0,0.1,0.1,0.1,0.1,0.2c0,0,0.1,0.1,0.2,0.1s0.2,0,0.3,0c0.1,0,0.2-0.1,0.2-0.1s0.1-0.1,0.1-0.2c0-0.1,0-0.1,0-0.2
		c0-0.1-0.1-0.1-0.1-0.2c-0.1,0-0.2-0.1-0.3,0l-0.2,0c-0.2,0-0.4,0-0.6,0c-0.2,0-0.3-0.1-0.4-0.2c-0.1-0.1-0.2-0.2-0.3-0.4
		c0-0.2,0-0.4,0-0.5c0.1-0.2,0.2-0.3,0.3-0.4C61.8,94.4,62,94.3,62.2,94.3z"/>
	<path class="st0" d="M60.1,94.9l0.1,0.5L59,95.7l-0.1-0.5L60.1,94.9z M60.4,96.1l0.1,0.5l-1.2,0.3l-0.1-0.5L60.4,96.1z M60.6,97.2
		l0.1,0.5L59.5,98l-0.1-0.5L60.6,97.2z M60.7,94.8l0.6,2.9l-0.6,0.1L60,94.9L60.7,94.8z"/>
	<path class="st0" d="M58.4,95.3l0.4,2.9l-0.9,0.1L57,96.8l-0.1,0l-0.4,1.7l-0.9,0.1l-0.4-2.9l0.6-0.1l0.4,2.5l-0.1,0l0.5-2l0.6-0.1
		l1,1.8l-0.1,0l-0.4-2.5L58.4,95.3z"/>
	<path class="st0" d="M52.4,96l-0.9,2.9l-1.1,0L49.4,96l0.7,0l0.9,2.5l-0.2-0.1l0.5,0L51,98.5l0.7-2.5L52.4,96z M51.7,96.7l-0.2,0.5
		l-1.1,0l-0.2-0.5L51.7,96.7z"/>
	<path class="st0" d="M48.2,95.9c0.2,0,0.3,0,0.4,0.1c0.1,0.1,0.2,0.1,0.3,0.2c0.1,0.1,0.2,0.2,0.2,0.4c0,0.1,0.1,0.3,0.1,0.4l0,0.1
		c0,0.2,0,0.3-0.1,0.4c-0.1,0.1-0.1,0.3-0.2,0.3c-0.1,0.1-0.2,0.2-0.3,0.2c-0.1,0.1-0.3,0.1-0.4,0.1c-0.2,0-0.3-0.1-0.5-0.1
		c-0.1-0.1-0.2-0.2-0.3-0.3c-0.1-0.2-0.1-0.3-0.1-0.5l0.2,0.2l-0.1,1.5l-0.6,0l0.1-2.9l0.5,0l0,0.9l-0.1,0c0-0.2,0.1-0.4,0.2-0.5
		c0.1-0.1,0.2-0.2,0.3-0.3S48,95.9,48.2,95.9z M48,96.4c-0.1,0-0.2,0-0.3,0.1c-0.1,0-0.2,0.1-0.2,0.2c-0.1,0.1-0.1,0.2-0.1,0.3
		l0,0.1c0,0.1,0,0.2,0.1,0.3c0,0.1,0.1,0.1,0.2,0.2c0.1,0,0.2,0.1,0.3,0.1c0.1,0,0.2,0,0.3-0.1c0.1-0.1,0.2-0.1,0.2-0.2
		c0.1-0.1,0.1-0.2,0.1-0.3c0-0.1,0-0.2-0.1-0.3c0-0.1-0.1-0.2-0.2-0.2C48.2,96.5,48.1,96.4,48,96.4z"/>
	<path class="st0" d="M45.3,95.7c0.2,0,0.4,0.1,0.5,0.1c0.1,0.1,0.3,0.2,0.4,0.3c0.1,0.1,0.2,0.2,0.2,0.4c0,0.1,0.1,0.3,0,0.4l0,0.1
		c0,0.2-0.1,0.3-0.1,0.4c-0.1,0.1-0.2,0.2-0.3,0.3c-0.1,0.1-0.2,0.2-0.4,0.2S45.2,98,45,98c-0.2,0-0.4-0.1-0.5-0.1
		c-0.1-0.1-0.3-0.2-0.4-0.3c-0.1-0.1-0.2-0.2-0.2-0.4c0-0.1-0.1-0.3,0-0.4l0-0.1c0-0.1,0.1-0.3,0.1-0.4c0.1-0.1,0.2-0.2,0.3-0.3
		c0.1-0.1,0.2-0.2,0.4-0.2C44.9,95.7,45.1,95.7,45.3,95.7z M45.2,96.2c-0.1,0-0.2,0-0.3,0c-0.1,0-0.2,0.1-0.2,0.2
		c-0.1,0.1-0.1,0.2-0.1,0.3c0,0.1,0,0.2,0,0.3c0,0.1,0.1,0.2,0.2,0.2s0.2,0.1,0.3,0.1c0.1,0,0.2,0,0.3-0.1c0.1,0,0.2-0.1,0.2-0.2
		c0.1-0.1,0.1-0.2,0.1-0.3c0-0.1,0-0.2,0-0.3c0-0.1-0.1-0.2-0.2-0.2C45.4,96.3,45.3,96.2,45.2,96.2z"/>
	<path class="st0" d="M42.3,95.3c0.2,0,0.3,0.1,0.4,0.2s0.2,0.2,0.3,0.4s0.1,0.3,0,0.5l-0.1,0l0.1-0.9l0.5,0.1l-0.5,2.9l-0.6-0.1
		l0.2-1.5l0.2-0.2c0,0.2-0.1,0.4-0.2,0.5c-0.1,0.1-0.2,0.2-0.4,0.3c-0.1,0.1-0.3,0.1-0.5,0c-0.1,0-0.3-0.1-0.4-0.1
		c-0.1-0.1-0.2-0.2-0.3-0.3s-0.1-0.2-0.1-0.4s0-0.3,0-0.5l0-0.1c0-0.2,0.1-0.3,0.1-0.4s0.2-0.2,0.3-0.3c0.1-0.1,0.2-0.1,0.4-0.2
		C42,95.3,42.2,95.3,42.3,95.3z M42.4,95.8c-0.1,0-0.2,0-0.3,0c-0.1,0-0.2,0.1-0.2,0.2c-0.1,0.1-0.1,0.2-0.1,0.3c0,0.1,0,0.2,0,0.3
		c0,0.1,0.1,0.2,0.2,0.2c0.1,0.1,0.2,0.1,0.3,0.1c0.1,0,0.2,0,0.3,0c0.1,0,0.2-0.1,0.2-0.2c0.1-0.1,0.1-0.2,0.1-0.3l0-0.1
		c0-0.1,0-0.2,0-0.3S42.8,96,42.7,96C42.6,95.9,42.5,95.9,42.4,95.8z"/>
	<path class="st0" d="M40,94.8c0.2,0,0.3,0.1,0.5,0.2c0.1,0.1,0.2,0.2,0.3,0.3s0.1,0.3,0.1,0.4c0,0.1,0,0.3,0,0.4l0,0.1
		c0,0.1-0.1,0.3-0.2,0.4c-0.1,0.1-0.2,0.2-0.3,0.3s-0.2,0.1-0.4,0.2c-0.1,0-0.3,0-0.5,0c-0.2-0.1-0.4-0.1-0.5-0.3
		c-0.1-0.1-0.2-0.3-0.3-0.5c0-0.2,0-0.4,0-0.6l0-0.2l1.9,0.4l-0.1,0.4L39,96l0.2-0.1c0,0.1,0,0.2,0,0.3c0,0.1,0.1,0.2,0.1,0.2
		c0.1,0.1,0.1,0.1,0.3,0.1c0.1,0,0.2,0,0.3,0c0.1,0,0.2-0.1,0.2-0.2c0.1-0.1,0.1-0.2,0.1-0.3c0-0.1,0-0.2,0-0.3
		c0-0.1-0.1-0.2-0.1-0.3c-0.1-0.1-0.2-0.1-0.3-0.1c-0.1,0-0.2,0-0.3,0c-0.1,0-0.1,0.1-0.2,0.1l-0.6-0.1c0.1-0.1,0.2-0.2,0.3-0.3
		c0.1-0.1,0.2-0.2,0.4-0.2C39.6,94.8,39.8,94.8,40,94.8z"/>
	<path class="st0" d="M37.5,94.2c0.3,0.1,0.5,0.2,0.6,0.3s0.3,0.3,0.3,0.4s0,0.3,0,0.5l-0.6-0.2c0-0.1,0-0.1,0-0.2
		c0-0.1-0.1-0.1-0.1-0.2c-0.1-0.1-0.2-0.1-0.3-0.1c-0.1,0-0.2,0-0.3,0c-0.1,0-0.2,0-0.2,0.1c-0.1,0-0.1,0.1-0.1,0.2
		c0,0.1,0,0.2,0.1,0.2c0.1,0.1,0.2,0.1,0.3,0.2l0.2,0.1c0.3,0.1,0.5,0.3,0.6,0.5c0.1,0.2,0.2,0.4,0.1,0.7c-0.1,0.2-0.1,0.3-0.3,0.4
		c-0.1,0.1-0.3,0.2-0.4,0.2c-0.2,0-0.4,0-0.6,0c-0.2-0.1-0.4-0.2-0.5-0.3s-0.2-0.3-0.3-0.4c0-0.2,0-0.3,0-0.5l0.6,0.2
		c0,0.1,0,0.1,0,0.2s0.1,0.1,0.1,0.2c0.1,0.1,0.1,0.1,0.2,0.1c0.1,0,0.2,0,0.2,0c0.1,0,0.1,0,0.2-0.1c0,0,0.1-0.1,0.1-0.2
		c0-0.1,0-0.2,0-0.2c0-0.1-0.1-0.1-0.2-0.2l-0.2-0.1c-0.2-0.1-0.4-0.2-0.5-0.3c-0.1-0.1-0.2-0.2-0.3-0.4c-0.1-0.1-0.1-0.3,0-0.5
		c0.1-0.2,0.1-0.3,0.3-0.4c0.1-0.1,0.3-0.2,0.5-0.2S37.3,94.1,37.5,94.2z"/>
	<path class="st0" d="M35.3,93.5c0.2,0.1,0.4,0.2,0.5,0.4s0.1,0.5,0,0.8l-0.4,1.2l-0.6-0.2l0.4-1.2c0-0.1,0-0.2,0-0.3
		c0-0.1-0.1-0.1-0.2-0.2c-0.1,0-0.2,0-0.3,0c-0.1,0-0.2,0.1-0.2,0.2L34,95.5l-0.6-0.2l0.7-2.1l0.5,0.2l-0.3,0.9l0,0
		c0.1-0.2,0.2-0.4,0.3-0.5c0.1-0.1,0.2-0.2,0.3-0.2C35,93.5,35.1,93.5,35.3,93.5L35.3,93.5z"/>
	<path class="st0" d="M32.4,95.1c0.1,0,0.2,0.1,0.2,0.2c0,0.1,0,0.2,0,0.3c0,0.1-0.1,0.2-0.2,0.2s-0.2,0-0.3,0
		c-0.1,0-0.2-0.1-0.2-0.2c0-0.1,0-0.2,0-0.3c0-0.1,0.1-0.2,0.2-0.2C32.2,95.1,32.3,95.1,32.4,95.1z M33.5,92.9l-0.8,2l-0.6-0.2
		l0.8-2L33.5,92.9z M33.1,94.7L33,95.1l-0.9-0.3l0.2-0.4L33.1,94.7z"/>
	<path class="st0" d="M31.9,94.2l-0.2,0.4L30.3,94l0.2-0.4L31.9,94.2z M31.4,92.1c0.2,0.1,0.4,0.2,0.5,0.3c0.1,0.1,0.2,0.2,0.2,0.4
		s0,0.3-0.1,0.5L31.2,95l-0.5-0.2l0.8-1.8c0-0.1,0-0.2,0-0.3c0-0.1-0.1-0.1-0.2-0.2l-0.3-0.1l0.2-0.5L31.4,92.1z"/>
	<path class="st0" d="M29.9,91.3c0.2,0.1,0.3,0.2,0.4,0.3c0.1,0.1,0.2,0.2,0.2,0.4c0,0.1,0,0.3,0,0.4c0,0.1-0.1,0.3-0.1,0.4l0,0.1
		c-0.1,0.1-0.1,0.2-0.3,0.3c-0.1,0.1-0.2,0.2-0.4,0.2c-0.1,0.1-0.3,0.1-0.4,0.1s-0.3,0-0.5-0.1c-0.2-0.1-0.4-0.2-0.5-0.4
		s-0.2-0.3-0.2-0.5c0-0.2,0-0.4,0.1-0.6l0.1-0.2l1.7,0.8l-0.2,0.3l-1.4-0.7l0.3-0.1c-0.1,0.1-0.1,0.2-0.1,0.3s0,0.2,0.1,0.3
		c0,0.1,0.1,0.1,0.2,0.2c0.1,0,0.2,0.1,0.3,0.1s0.2-0.1,0.3-0.1c0.1-0.1,0.1-0.2,0.2-0.3c0.1-0.1,0.1-0.2,0.1-0.3
		c0-0.1,0-0.2-0.1-0.3c0-0.1-0.1-0.2-0.2-0.2c-0.1-0.1-0.2-0.1-0.3-0.1s-0.2,0-0.2,0.1l-0.5-0.3c0.1-0.1,0.2-0.2,0.3-0.3
		c0.1-0.1,0.3-0.1,0.4-0.1C29.6,91.2,29.8,91.2,29.9,91.3z"/>
	<path class="st0" d="M24.5,88.3l-1,2.7L23,90.7l0.9-2.3l0.1,0.2l-0.3-0.2l0.2,0l-1.8,1.8l-0.5-0.3l2.1-2.1L24.5,88.3z M26,89.3
		l-1,2.8l-0.6-0.4l0.9-2.4l0.1,0.2l-0.3-0.2l0.2,0l-1.7,1.7l-0.5-0.3l2-2L26,89.3z"/>
	<path class="st0" d="M22.2,86.5c0.2,0.1,0.3,0.2,0.4,0.4c0.1,0.1,0.1,0.3,0.2,0.4c0,0.1,0,0.3,0,0.4c0,0.1-0.1,0.3-0.2,0.4
		l-0.1,0.1c-0.1,0.1-0.2,0.2-0.3,0.3s-0.3,0.1-0.4,0.1c-0.1,0-0.3,0-0.5,0s-0.3-0.1-0.5-0.2c-0.2-0.1-0.3-0.2-0.3-0.4
		s-0.1-0.3-0.2-0.4c0-0.1,0-0.3,0-0.4c0-0.1,0.1-0.3,0.2-0.4l0.1-0.1c0.1-0.1,0.2-0.2,0.3-0.3c0.1-0.1,0.3-0.1,0.4-0.1
		c0.1,0,0.3,0,0.4,0C21.9,86.3,22,86.4,22.2,86.5z M21.8,87c-0.1-0.1-0.2-0.1-0.3-0.1s-0.2,0-0.3,0.1c-0.1,0-0.2,0.1-0.2,0.2
		c-0.1,0.1-0.1,0.2-0.1,0.3s0,0.2,0,0.3c0,0.1,0.1,0.2,0.2,0.3c0.1,0.1,0.2,0.1,0.3,0.1c0.1,0,0.2,0,0.3-0.1s0.2-0.1,0.3-0.2
		c0.1-0.1,0.1-0.2,0.1-0.3s0-0.2,0-0.3C22,87.1,21.9,87,21.8,87z"/>
	<path class="st0" d="M20.8,85.6l-1.4,1.7L19,86.9l0.6-0.7l0,0c-0.2,0.2-0.4,0.4-0.6,0.4s-0.4,0-0.6-0.2l-0.1-0.1l0.4-0.4l0.1,0.1
		c0.1,0.1,0.3,0.2,0.4,0.2c0.1,0,0.3-0.1,0.4-0.2l0.7-0.9L20.8,85.6z"/>
	<path class="st0" d="M19,83.9c0.1,0.1,0.2,0.2,0.3,0.3c0.1,0.1,0.1,0.3,0.1,0.4c0,0.1,0,0.3-0.1,0.4s-0.1,0.3-0.2,0.4l-0.1,0.1
		c-0.1,0.1-0.2,0.2-0.4,0.3c-0.1,0.1-0.3,0.1-0.4,0.1s-0.3,0-0.4,0s-0.3-0.1-0.4-0.2c-0.1-0.1-0.2-0.2-0.3-0.4c0-0.1,0-0.3,0-0.5
		c0-0.2,0.1-0.3,0.3-0.5l0,0.2l-1,1.1L16,85.2l2-2.1l0.4,0.3L17.7,84L17.6,84c0.1-0.1,0.3-0.2,0.5-0.3c0.2-0.1,0.3-0.1,0.5,0
		C18.7,83.7,18.8,83.7,19,83.9z M18.5,84.1c-0.1-0.1-0.2-0.1-0.2-0.1c-0.1,0-0.2,0-0.3,0s-0.2,0.1-0.3,0.2l-0.1,0.1
		c-0.1,0.1-0.1,0.2-0.1,0.3c0,0.1,0,0.2,0,0.3c0,0.1,0.1,0.2,0.2,0.2c0.1,0.1,0.2,0.1,0.3,0.1c0.1,0,0.2,0,0.3,0s0.2-0.1,0.3-0.2
		c0.1-0.1,0.1-0.2,0.2-0.3c0-0.1,0-0.2,0-0.3C18.6,84.3,18.6,84.2,18.5,84.1z"/>
	<path class="st0" d="M18.1,82.1L16,84.1l-0.4-0.4l0.7-0.7l0,0.1c-0.2,0.1-0.3,0.2-0.5,0.3c-0.2,0-0.3,0-0.5,0
		c-0.1,0-0.3-0.1-0.4-0.3c-0.1-0.1-0.2-0.2-0.2-0.4c0-0.1-0.1-0.3-0.1-0.4c0-0.1,0-0.3,0.1-0.4s0.2-0.2,0.3-0.4l0.1-0.1
		c0.1-0.1,0.2-0.2,0.4-0.3c0.1-0.1,0.3-0.1,0.4-0.1c0.1,0,0.3,0,0.4,0.1c0.1,0,0.2,0.1,0.4,0.2c0.1,0.1,0.2,0.3,0.2,0.4
		c0,0.1,0,0.3,0,0.4c0,0.2-0.1,0.3-0.3,0.5l0.1-0.3l1-1L18.1,82.1z M16.4,82.1c-0.1-0.1-0.2-0.1-0.3-0.2c-0.1,0-0.2,0-0.3,0
		c-0.1,0-0.2,0.1-0.3,0.2c-0.1,0.1-0.2,0.2-0.2,0.3c0,0.1,0,0.2,0,0.3c0,0.1,0.1,0.2,0.1,0.3c0.1,0.1,0.1,0.1,0.2,0.1s0.2,0,0.3,0
		c0.1,0,0.2-0.1,0.3-0.2l0.1-0.1c0.1-0.1,0.1-0.2,0.2-0.3s0-0.2,0-0.3C16.5,82.2,16.5,82.2,16.4,82.1z"/>
	<path class="st0" d="M15.6,80.6L14,82l-0.3-0.4l0.7-0.6l0,0c-0.2,0.2-0.5,0.3-0.7,0.3s-0.4-0.1-0.6-0.3L13.1,81l0.4-0.4l0.1,0.1
		c0.1,0.1,0.2,0.2,0.4,0.2c0.1,0,0.3,0,0.4-0.2l0.8-0.7L15.6,80.6z"/>
	<path class="st0" d="M14,78.5c0.1,0.1,0.2,0.3,0.2,0.4c0,0.2,0,0.3,0,0.4c0,0.1-0.1,0.3-0.2,0.4s-0.2,0.2-0.3,0.3l-0.1,0
		c-0.1,0.1-0.2,0.2-0.4,0.2s-0.3,0.1-0.4,0.1s-0.3,0-0.4-0.1c-0.1-0.1-0.3-0.2-0.4-0.3c-0.1-0.2-0.2-0.4-0.2-0.6
		c0-0.2,0-0.4,0.1-0.5c0.1-0.2,0.2-0.3,0.4-0.4l0.2-0.1l1.2,1.5l-0.3,0.2l-1-1.2l0.3,0.1c-0.1,0.1-0.2,0.2-0.2,0.3
		c0,0.1-0.1,0.2-0.1,0.3c0,0.1,0,0.2,0.1,0.3c0.1,0.1,0.1,0.1,0.2,0.2c0.1,0,0.2,0,0.3,0s0.2-0.1,0.3-0.2c0.1-0.1,0.2-0.2,0.2-0.3
		c0.1-0.1,0.1-0.2,0.1-0.3c0-0.1-0.1-0.2-0.1-0.3c-0.1-0.1-0.2-0.2-0.2-0.2s-0.2,0-0.2,0l-0.4-0.5c0.1-0.1,0.3-0.1,0.4-0.1
		s0.3,0,0.4,0.1C13.8,78.3,13.9,78.4,14,78.5z"/>
	<path class="st0" d="M12.6,76.7c0.2,0.3,0.3,0.5,0.3,0.7c0,0.2-0.1,0.4-0.3,0.5l-0.3-0.5c0.1,0,0.1-0.1,0.1-0.2
		c0-0.1,0-0.2-0.1-0.3c-0.1-0.1-0.1-0.2-0.2-0.2c-0.1,0-0.1,0-0.2,0c-0.1,0-0.1,0.1-0.1,0.2c0,0.1,0,0.2,0.1,0.3l0.1,0.1
		c0.1,0.2,0.2,0.4,0.2,0.6c0,0.2-0.1,0.3-0.3,0.4c-0.1,0.1-0.3,0.1-0.4,0.1s-0.3,0-0.4-0.1c-0.1-0.1-0.2-0.2-0.3-0.3
		c-0.2-0.2-0.2-0.5-0.2-0.7c0-0.2,0.1-0.4,0.3-0.5l0.3,0.5c-0.1,0.1-0.1,0.1-0.1,0.2c0,0.1,0,0.2,0.1,0.3c0.1,0.1,0.1,0.1,0.2,0.2
		c0.1,0,0.1,0,0.2,0c0.1,0,0.1-0.1,0.1-0.1c0-0.1,0-0.1-0.1-0.2l-0.1-0.1c-0.1-0.2-0.2-0.5-0.2-0.6c0-0.2,0.1-0.3,0.3-0.5
		c0.1-0.1,0.2-0.1,0.4-0.1s0.3,0,0.4,0.1C12.4,76.4,12.5,76.5,12.6,76.7z"/>
	<path class="st0" d="M11.4,74.9c0.2,0.3,0.2,0.5,0.2,0.7c0,0.2-0.1,0.4-0.3,0.5L11,75.7c0.1,0,0.1-0.1,0.1-0.2c0-0.1,0-0.2-0.1-0.3
		c-0.1-0.1-0.1-0.2-0.2-0.2c-0.1,0-0.1,0-0.2,0c-0.1,0-0.1,0.1-0.1,0.2s0,0.2,0.1,0.3l0.1,0.2c0.1,0.2,0.2,0.4,0.1,0.6
		c0,0.2-0.1,0.3-0.3,0.4c-0.1,0.1-0.3,0.1-0.4,0.1c-0.1,0-0.3-0.1-0.4-0.1c-0.1-0.1-0.2-0.2-0.3-0.4c-0.2-0.2-0.2-0.5-0.2-0.7
		c0-0.2,0.1-0.4,0.3-0.5l0.3,0.5c-0.1,0-0.1,0.1-0.1,0.2c0,0.1,0,0.2,0.1,0.3C9.9,76,10,76.1,10,76.1c0.1,0,0.1,0,0.2,0
		c0.1,0,0.1-0.1,0.1-0.1c0-0.1,0-0.1-0.1-0.2l-0.1-0.2C10,75.3,10,75.1,10,74.9c0-0.2,0.1-0.3,0.3-0.5c0.1-0.1,0.3-0.1,0.4-0.1
		s0.3,0.1,0.4,0.2C11.2,74.6,11.3,74.7,11.4,74.9z"/>
	<path class="st0" d="M8.4,71.5l-0.5,0.3l-0.2-0.5c0-0.1-0.1-0.2-0.2-0.2C7.4,71,7.3,71,7.2,71C7.1,71,7,71,7,71
		c-0.1,0-0.2,0.1-0.2,0.2c0,0.1-0.1,0.1-0.1,0.2s0,0.2,0.1,0.3L7,72.1l-0.5,0.3L6.2,72c-0.1-0.2-0.2-0.4-0.2-0.6
		c0-0.2,0-0.4,0.1-0.5c0.1-0.2,0.2-0.3,0.4-0.4l0.1,0c0.2-0.1,0.4-0.1,0.5-0.1c0.2,0,0.3,0.1,0.5,0.2C7.9,70.6,8,70.8,8.1,71
		L8.4,71.5z M9.4,71.6l-2.6,1.3l-0.3-0.6L9.1,71L9.4,71.6z"/>
	<path class="st0" d="M8.2,69.2l-2,0.9L6,69.7l0.9-0.4l0,0c-0.3,0.1-0.5,0.2-0.7,0.1c-0.2-0.1-0.4-0.2-0.5-0.4l0-0.1l0.5-0.2
		l0.1,0.1c0.1,0.2,0.2,0.3,0.3,0.3c0.1,0,0.3,0,0.4,0l1-0.5L8.2,69.2z"/>
	<path class="st0" d="M7.2,66.8c0.1,0.2,0.1,0.3,0.1,0.5s0,0.3-0.1,0.4C7.1,67.8,7.1,67.9,7,68c-0.1,0.1-0.2,0.2-0.4,0.2l-0.1,0
		c-0.1,0.1-0.3,0.1-0.4,0.1c-0.1,0-0.3,0-0.4-0.1s-0.3-0.1-0.4-0.2c-0.1-0.1-0.2-0.2-0.3-0.4C5,67.4,4.9,67.2,5,67
		c0-0.2,0.1-0.4,0.2-0.5c0.1-0.1,0.3-0.2,0.5-0.3l0.2-0.1l0.7,1.8l-0.3,0.1l-0.6-1.4l0.2,0.1c-0.1,0-0.2,0.1-0.3,0.2
		s-0.1,0.1-0.1,0.2c0,0.1,0,0.2,0,0.3c0,0.1,0.1,0.2,0.2,0.2c0.1,0.1,0.2,0.1,0.3,0.1c0.1,0,0.2,0,0.4-0.1c0.1,0,0.2-0.1,0.3-0.2
		c0.1-0.1,0.1-0.2,0.1-0.2c0-0.1,0-0.2,0-0.3c0-0.1-0.1-0.2-0.2-0.2c-0.1-0.1-0.1-0.1-0.2-0.1l-0.2-0.5c0.1,0,0.3,0,0.4,0
		c0.1,0,0.3,0.1,0.4,0.2C7.1,66.5,7.2,66.6,7.2,66.8z"/>
	<path class="st0" d="M6.4,64.6c0.1,0.3,0.1,0.5,0.1,0.8c-0.1,0.2-0.2,0.4-0.4,0.4l-0.2-0.5C6,65.2,6,65.2,6,65.1c0-0.1,0-0.2,0-0.3
		c0-0.1-0.1-0.2-0.1-0.2c-0.1-0.1-0.1-0.1-0.2-0.1c-0.1,0-0.1,0.1-0.1,0.1c0,0.1,0,0.2,0,0.3l0,0.2c0.1,0.3,0.1,0.5,0,0.6
		S5.4,66,5.2,66c-0.1,0-0.3,0.1-0.4,0c-0.1,0-0.2-0.1-0.3-0.2s-0.2-0.3-0.2-0.4c-0.1-0.3-0.1-0.5,0-0.7c0.1-0.2,0.2-0.3,0.4-0.4
		l0.2,0.5c-0.1,0-0.1,0.1-0.1,0.2c0,0.1,0,0.2,0,0.3c0,0.1,0.1,0.2,0.1,0.2s0.1,0.1,0.2,0c0.1,0,0.1-0.1,0.1-0.1c0-0.1,0-0.1,0-0.3
		l0-0.2c-0.1-0.3-0.1-0.5,0-0.7c0.1-0.2,0.2-0.3,0.4-0.4c0.1,0,0.3,0,0.4,0C6,64,6.1,64,6.2,64.2S6.4,64.4,6.4,64.6z"/>
	<path class="st0" d="M5.7,62.4c0.1,0.2,0.1,0.4,0.1,0.5c0,0.1-0.1,0.3-0.2,0.4s-0.3,0.2-0.5,0.2L3.3,64l-0.2-0.6L5,62.9
		c0.1,0,0.2-0.1,0.2-0.1c0-0.1,0-0.1,0-0.2l-0.1-0.3l0.5-0.1L5.7,62.4z M4.4,64.1l-0.4,0.1l-0.4-1.5l0.4-0.1L4.4,64.1z"/>
	<path class="st0" d="M5.2,60.4l-0.6,0.2l0,0.1l-0.7,0.2c-0.1,0-0.2,0.1-0.2,0.1c0,0.1,0,0.2,0,0.3c0,0.1,0,0.1,0.1,0.2
		c0,0.1,0.1,0.2,0.1,0.3s0.1,0.2,0.1,0.3l-0.5,0.1c0-0.1,0-0.1-0.1-0.2c0-0.1,0-0.2-0.1-0.2c0-0.1,0-0.2-0.1-0.2
		c-0.1-0.2-0.1-0.4,0-0.6c0-0.2,0.1-0.3,0.2-0.4s0.3-0.2,0.5-0.2l1.3-0.3L5.2,60.4z M5.4,61.1c0,0.2,0,0.3,0,0.4
		c0,0.1-0.1,0.2-0.2,0.3S5,62,4.9,62c-0.2,0-0.3,0-0.4,0c-0.1-0.1-0.2-0.2-0.3-0.3S4,61.4,4,61.2l-0.1-0.5l0.3-0.1l0.1,0.5
		c0,0.1,0.1,0.2,0.1,0.2c0.1,0,0.1,0.1,0.2,0c0.1,0,0.1-0.1,0.2-0.1s0-0.2,0-0.3c0-0.1,0-0.1-0.1-0.2s-0.1-0.1-0.2-0.1
		c-0.1,0-0.2,0-0.3,0l0.1-0.2c0.2,0,0.3,0,0.4,0c0.1,0,0.2,0.1,0.3,0.2C5.3,60.8,5.4,60.9,5.4,61.1z"/>
	<path class="st0" d="M4.9,58.6c0.1,0.3,0,0.6-0.1,0.8c-0.1,0.2-0.3,0.3-0.5,0.4l-0.1-0.6c0.1,0,0.1-0.1,0.2-0.2s0-0.2,0-0.3
		c0-0.1-0.1-0.2-0.1-0.3c-0.1-0.1-0.1-0.1-0.2-0.1c-0.1,0-0.1,0-0.1,0.1c0,0.1,0,0.2,0,0.3l0,0.2c0,0.3,0,0.5-0.1,0.6
		c-0.1,0.2-0.2,0.2-0.4,0.3c-0.2,0-0.3,0-0.4,0c-0.1-0.1-0.2-0.1-0.3-0.3c-0.1-0.1-0.1-0.3-0.2-0.4c-0.1-0.3,0-0.5,0.1-0.7
		C2.7,58.1,2.9,58,3.1,58l0.1,0.6c-0.1,0-0.1,0.1-0.2,0.1s0,0.2,0,0.3c0,0.1,0.1,0.2,0.1,0.2c0,0.1,0.1,0.1,0.2,0.1
		c0.1,0,0.1,0,0.1-0.1s0-0.1,0-0.3l0-0.2c0-0.3,0-0.5,0.1-0.7s0.2-0.3,0.4-0.3c0.1,0,0.3,0,0.4,0c0.1,0.1,0.2,0.2,0.3,0.3
		C4.8,58.2,4.8,58.4,4.9,58.6z"/>
	<path class="st0" d="M4.6,57.3l-2.9,0.4L1.6,57l1.7-0.2l0,0.1c-0.2,0-0.4,0-0.6,0c-0.2,0-0.3-0.1-0.4-0.2s-0.2-0.2-0.2-0.4l0,0
		c0-0.2,0-0.4,0.2-0.6c0.2-0.1,0.4-0.2,0.7-0.3l1.2-0.2l0.1,0.6L3.1,56c-0.1,0-0.2,0.1-0.3,0.1c-0.1,0.1-0.1,0.2-0.1,0.3
		c0,0.1,0.1,0.2,0.2,0.3c0.1,0.1,0.2,0.1,0.3,0.1l1.3-0.2L4.6,57.3z"/>
	<path class="st0" d="M4.2,53.6c0,0.2,0,0.4,0,0.5c0,0.2-0.1,0.3-0.2,0.4s-0.2,0.2-0.3,0.3c-0.1,0.1-0.3,0.1-0.4,0.1l-0.1,0
		c-0.2,0-0.3,0-0.4,0c-0.1,0-0.3-0.1-0.4-0.2S2.1,54.5,2,54.3c-0.1-0.1-0.1-0.3-0.1-0.5c0-0.2,0-0.4,0.1-0.5c0-0.2,0.1-0.3,0.2-0.4
		c0.1-0.1,0.2-0.2,0.3-0.3c0.1-0.1,0.3-0.1,0.4-0.1l0.1,0c0.1,0,0.3,0,0.4,0c0.1,0,0.3,0.1,0.4,0.2C3.9,52.9,4,53,4.1,53.1
		C4.2,53.3,4.2,53.5,4.2,53.6z M3.7,53.7c0-0.1,0-0.2-0.1-0.3c-0.1-0.1-0.1-0.1-0.2-0.2c-0.1,0-0.2,0-0.3,0c-0.1,0-0.2,0-0.3,0.1
		s-0.2,0.1-0.2,0.2c0,0.1-0.1,0.2-0.1,0.3c0,0.1,0,0.2,0.1,0.3c0.1,0.1,0.1,0.1,0.2,0.2c0.1,0,0.2,0,0.3,0c0.1,0,0.2,0,0.3-0.1
		c0.1-0.1,0.2-0.1,0.2-0.2C3.7,53.9,3.7,53.8,3.7,53.7z"/>
	<path class="st0" d="M4.8,52l-3,0.1l0-0.5l0.9,0l0,0.1c-0.2,0-0.4,0-0.6-0.1c-0.2-0.1-0.3-0.2-0.3-0.3c-0.1-0.1-0.1-0.3-0.1-0.5
		c0-0.2,0-0.3,0.1-0.4S2,50,2.1,49.9c0.1-0.1,0.2-0.2,0.3-0.2c0.1,0,0.3-0.1,0.4-0.1l0.1,0c0.2,0,0.3,0,0.4,0.1
		c0.1,0,0.3,0.1,0.4,0.2C3.8,50,3.9,50.1,4,50.2c0.1,0.1,0.1,0.3,0.1,0.4c0,0.2,0,0.3-0.1,0.4c-0.1,0.1-0.2,0.2-0.3,0.3
		c-0.1,0.1-0.3,0.1-0.5,0.1l0.2-0.2l1.4,0L4.8,52z M3.5,50.8c0-0.1,0-0.2-0.1-0.3c-0.1-0.1-0.1-0.1-0.2-0.2c-0.1,0-0.2-0.1-0.3-0.1
		c-0.1,0-0.2,0-0.3,0.1c-0.1,0-0.2,0.1-0.2,0.2s-0.1,0.2-0.1,0.3c0,0.1,0,0.2,0.1,0.3c0,0.1,0.1,0.2,0.2,0.2c0.1,0,0.2,0.1,0.3,0.1
		l0.1,0c0.1,0,0.2,0,0.3-0.1c0.1-0.1,0.1-0.1,0.2-0.2C3.5,51,3.5,50.9,3.5,50.8z"/>
	<path class="st0" d="M4.1,46.7l-2.9-0.3l0.1-0.7l2.9,0.3L4.1,46.7z M3.3,46.1L2.8,46l0-0.5c0-0.1,0-0.2,0-0.3
		c0-0.1-0.1-0.1-0.2-0.2S2.5,45,2.4,45c-0.1,0-0.2,0-0.3,0C2,45,2,45.1,1.9,45.2c0,0.1-0.1,0.2-0.1,0.3l0,0.5l-0.6-0.1l0-0.5
		c0-0.2,0.1-0.5,0.2-0.6c0.1-0.2,0.2-0.3,0.4-0.4c0.2-0.1,0.3-0.1,0.6-0.1l0.1,0c0.2,0,0.4,0.1,0.5,0.2c0.1,0.1,0.2,0.3,0.3,0.4
		s0.1,0.4,0.1,0.6L3.3,46.1z"/>
	<path class="st0" d="M2,43.4c0,0.1-0.1,0.2-0.1,0.3s-0.2,0.1-0.2,0.1c-0.1,0-0.2-0.1-0.2-0.1c-0.1-0.1-0.1-0.2-0.1-0.3
		c0-0.1,0.1-0.2,0.1-0.3s0.2-0.1,0.3-0.1c0.1,0,0.2,0.1,0.2,0.1C2,43.2,2,43.3,2,43.4z M2.6,44.1L2.2,44l0.1-0.9l0.5,0.1L2.6,44.1z
		 M4.4,44l-2.2-0.3l0.1-0.6l2.2,0.3L4.4,44z"/>
	<path class="st0" d="M4.5,42.8l-2.2-0.4l0.1-0.5l0.9,0.2l0,0c-0.2,0-0.4-0.1-0.5-0.2c-0.1-0.1-0.2-0.2-0.3-0.3
		c-0.1-0.1-0.1-0.3,0-0.4l0,0c0-0.3,0.2-0.4,0.3-0.5c0.2-0.1,0.4-0.1,0.8-0.1l1.2,0.2l-0.1,0.6l-1.3-0.2c-0.1,0-0.2,0-0.3,0.1
		c-0.1,0.1-0.1,0.1-0.2,0.3c0,0.1,0,0.2,0.1,0.3c0.1,0.1,0.2,0.1,0.3,0.2l1.3,0.2L4.5,42.8z"/>
	<path class="st0" d="M5.3,39.3c0,0.2-0.1,0.3-0.2,0.5C5,39.9,4.9,40,4.8,40c-0.1,0.1-0.3,0.1-0.4,0.1c-0.1,0-0.3,0-0.4,0l-0.1,0
		c-0.1,0-0.3-0.1-0.4-0.2s-0.2-0.2-0.3-0.3c-0.1-0.1-0.1-0.2-0.2-0.4c0-0.2,0-0.3,0-0.5c0.1-0.2,0.2-0.4,0.3-0.5
		C3.5,38.1,3.6,38,3.8,38c0.2,0,0.4,0,0.6,0l0.2,0l-0.4,1.9l-0.4-0.1l0.4-1.5l0.1,0.2c-0.1,0-0.2,0-0.3,0c-0.1,0-0.2,0.1-0.2,0.1
		c-0.1,0.1-0.1,0.1-0.1,0.2c0,0.1,0,0.2,0,0.3c0,0.1,0.1,0.2,0.2,0.2s0.2,0.1,0.3,0.1c0.1,0,0.2,0,0.3,0c0.1,0,0.2-0.1,0.3-0.1
		c0.1-0.1,0.1-0.2,0.1-0.3c0-0.1,0-0.2,0-0.3c0-0.1-0.1-0.1-0.1-0.2l0.1-0.6c0.1,0.1,0.2,0.2,0.3,0.3c0.1,0.1,0.1,0.3,0.2,0.4
		S5.4,39.1,5.3,39.3z"/>
	<path class="st0" d="M6.7,37.3c0,0.1-0.1,0.2-0.1,0.3s-0.1,0.2-0.1,0.3l-0.5-0.2c0-0.1,0.1-0.2,0.1-0.3c0-0.1,0.1-0.2,0.1-0.3
		c0-0.2,0.1-0.3,0.1-0.4c0-0.1,0-0.2-0.1-0.3c-0.1-0.1-0.2-0.1-0.3-0.2l-0.4-0.1L5.2,36c0.2,0.1,0.3,0.1,0.4,0.3s0.2,0.2,0.2,0.4
		c0,0.1,0,0.3,0,0.5c0,0.1-0.1,0.3-0.2,0.4c-0.1,0.1-0.2,0.2-0.3,0.2c-0.1,0.1-0.2,0.1-0.4,0.1c-0.1,0-0.3,0-0.4-0.1l-0.1,0
		c-0.1,0-0.3-0.1-0.4-0.2c-0.1-0.1-0.2-0.2-0.3-0.3c-0.1-0.1-0.1-0.2-0.1-0.4s0-0.3,0-0.4c0.1-0.2,0.1-0.3,0.2-0.4
		c0.1-0.1,0.2-0.2,0.4-0.2c0.2,0,0.3,0,0.6,0l0,0.1L4,35.7l0.1-0.5L6,35.7c0.3,0.1,0.5,0.2,0.6,0.3c0.1,0.1,0.2,0.3,0.2,0.5
		C6.8,36.8,6.8,37,6.7,37.3z M5.4,36.7c0-0.1,0-0.2,0-0.3c0-0.1-0.1-0.2-0.1-0.2c-0.1-0.1-0.2-0.1-0.3-0.2l-0.1,0
		c-0.1,0-0.2,0-0.3,0c-0.1,0-0.2,0.1-0.2,0.1s-0.1,0.1-0.1,0.2c0,0.1,0,0.2,0,0.3c0,0.1,0.1,0.2,0.1,0.2c0.1,0.1,0.2,0.1,0.3,0.2
		c0.1,0,0.2,0,0.3,0c0.1,0,0.2-0.1,0.3-0.1C5.3,36.9,5.4,36.8,5.4,36.7z"/>
	<path class="st0" d="M6.4,35.3l-2.1-0.7l0.2-0.5l0.9,0.3l0,0c-0.3-0.1-0.5-0.2-0.6-0.4c-0.1-0.2-0.1-0.4,0-0.6l0-0.1l0.5,0.2
		l-0.1,0.2c-0.1,0.2-0.1,0.3,0,0.4c0.1,0.1,0.2,0.2,0.3,0.3l1.1,0.4L6.4,35.3z"/>
	<path class="st0" d="M7.4,32.8c-0.1,0.2-0.2,0.3-0.3,0.4c-0.1,0.1-0.2,0.2-0.4,0.3c-0.1,0.1-0.3,0.1-0.4,0.1c-0.1,0-0.3,0-0.4-0.1
		l-0.1,0c-0.1-0.1-0.3-0.1-0.4-0.2c-0.1-0.1-0.2-0.2-0.2-0.4c-0.1-0.1-0.1-0.3-0.1-0.4c0-0.2,0-0.3,0.1-0.5c0.1-0.2,0.2-0.3,0.3-0.4
		c0.1-0.1,0.2-0.2,0.4-0.3c0.1-0.1,0.3-0.1,0.4-0.1c0.1,0,0.3,0,0.4,0.1l0.1,0c0.1,0.1,0.3,0.1,0.4,0.2c0.1,0.1,0.2,0.2,0.2,0.4
		c0.1,0.1,0.1,0.3,0.1,0.4C7.5,32.4,7.5,32.6,7.4,32.8z M6.9,32.6c0-0.1,0.1-0.2,0-0.3S6.9,32.1,6.8,32c-0.1-0.1-0.2-0.1-0.3-0.2
		c-0.1,0-0.2-0.1-0.3-0.1c-0.1,0-0.2,0-0.3,0.1c-0.1,0.1-0.1,0.1-0.2,0.3c0,0.1-0.1,0.2,0,0.3s0.1,0.2,0.1,0.3
		c0.1,0.1,0.2,0.1,0.3,0.2c0.1,0,0.2,0.1,0.3,0.1s0.2,0,0.3-0.1S6.9,32.7,6.9,32.6z"/>
	<path class="st0" d="M8.1,31l-2.2-0.4L6.1,30l2.2,0.5L8.1,31z M8.3,30.6l-1.7-1.3l0.3-0.6L9,29.2l-0.2,0.4l-2.1-0.5l0.1-0.3
		l1.7,1.3L8.3,30.6z M8.9,29.3l-1.8-1.4l0.3-0.5l1.7,1.4L8.9,29.3z M8.2,30.7l-0.5-0.2l0.2-0.4l0.5,0.2L8.2,30.7z M8.8,29.5
		l-0.5-0.2l0.2-0.4L9,29.1L8.8,29.5z"/>
	<path class="st0" d="M10.8,25.8l-2.5-1.6l0.3-0.5l2.5,1.6L10.8,25.8z M9.1,24.1l-0.5-0.3l0.7-1L9.8,23L9.1,24.1z M10.1,24.7
		l-0.5-0.3l0.6-1l0.5,0.3L10.1,24.7z M11.1,25.4l-0.5-0.3l0.7-1.1l0.5,0.3L11.1,25.4z"/>
	<path class="st0" d="M10,22.7l-0.4-0.3l0.5-0.7l0.4,0.3L10,22.7z M12.1,23.9l-2.4-1.7l0.4-0.5l2.4,1.7L12.1,23.9z"/>
	<path class="st0" d="M13.5,22.2c-0.1,0.1-0.2,0.3-0.4,0.3s-0.3,0.1-0.4,0.1c-0.1,0-0.3,0-0.4,0c-0.1,0-0.3-0.1-0.4-0.2l-0.1,0
		c-0.1-0.1-0.2-0.2-0.3-0.3c-0.1-0.1-0.1-0.3-0.2-0.4c0-0.1,0-0.3,0-0.4s0.1-0.3,0.2-0.4c0.1-0.2,0.3-0.3,0.5-0.4s0.4-0.1,0.6,0
		c0.2,0,0.4,0.1,0.5,0.2l0.2,0.1l-1.2,1.5L11.9,22l0.9-1.2l0,0.3c-0.1-0.1-0.2-0.1-0.3-0.2c-0.1,0-0.2,0-0.3,0S12.1,21,12,21.1
		c-0.1,0.1-0.1,0.2-0.1,0.3c0,0.1,0,0.2,0.1,0.3c0.1,0.1,0.1,0.2,0.2,0.3c0.1,0.1,0.2,0.1,0.3,0.2s0.2,0,0.3,0s0.2-0.1,0.3-0.2
		c0.1-0.1,0.1-0.2,0.1-0.3s0-0.2,0-0.2l0.4-0.5c0.1,0.1,0.2,0.2,0.2,0.4s0,0.3,0,0.4S13.6,22,13.5,22.2z"/>
	<path class="st0" d="M14.3,20.9l-1.6-1.4l0.3-0.4l0.7,0.6l0,0c-0.2-0.1-0.3-0.3-0.4-0.4c-0.1-0.1-0.1-0.3-0.1-0.4
		c0-0.1,0.1-0.3,0.2-0.4l0,0c0.1-0.1,0.2-0.2,0.4-0.2c0.1,0,0.3,0,0.4,0c0.2,0.1,0.3,0.2,0.5,0.3l-0.1,0.1c-0.2-0.1-0.3-0.3-0.4-0.4
		c-0.1-0.1-0.1-0.3-0.1-0.4s0.1-0.3,0.2-0.4l0,0c0.1-0.1,0.2-0.2,0.4-0.2c0.1,0,0.3,0,0.4,0c0.2,0.1,0.3,0.2,0.5,0.3l0.9,0.8
		l-0.4,0.5l-1-0.8c-0.1-0.1-0.2-0.1-0.3-0.1c-0.1,0-0.2,0-0.3,0.1s-0.1,0.2-0.1,0.3c0,0.1,0.1,0.2,0.2,0.3l1,0.8l-0.4,0.5l-1-0.8
		C14.1,19,14,18.9,14,18.9c-0.1,0-0.2,0-0.3,0.1c-0.1,0.1-0.1,0.2-0.1,0.3c0,0.1,0.1,0.2,0.2,0.3l1,0.8L14.3,20.9z"/>
	<path class="st0" d="M17.7,17.4c-0.1,0.1-0.3,0.2-0.4,0.3s-0.3,0.1-0.4,0.1c-0.1,0-0.3,0-0.4-0.1c-0.1-0.1-0.2-0.1-0.3-0.2L16,17.3
		c-0.1-0.1-0.2-0.2-0.2-0.4c-0.1-0.1-0.1-0.3-0.1-0.4c0-0.1,0-0.3,0.1-0.4c0.1-0.1,0.1-0.3,0.3-0.4c0.2-0.2,0.3-0.3,0.5-0.3
		c0.2,0,0.4,0,0.6,0c0.2,0.1,0.3,0.2,0.5,0.3l0.2,0.2l-1.4,1.4L16.1,17l1.1-1.1l0,0.3c-0.1-0.1-0.2-0.2-0.3-0.2
		c-0.1,0-0.2-0.1-0.3,0c-0.1,0-0.2,0.1-0.2,0.1c-0.1,0.1-0.1,0.2-0.1,0.3s0,0.2,0,0.3c0,0.1,0.1,0.2,0.2,0.3
		c0.1,0.1,0.2,0.2,0.3,0.2c0.1,0,0.2,0.1,0.3,0c0.1,0,0.2-0.1,0.3-0.2c0.1-0.1,0.1-0.2,0.2-0.3c0-0.1,0-0.2,0-0.2l0.4-0.4
		c0.1,0.1,0.1,0.3,0.1,0.4c0,0.1,0,0.3-0.1,0.4S17.8,17.3,17.7,17.4z"/>
	<path class="st0" d="M18.6,16.3l-1.5-1.6l0.4-0.3l0.6,0.7l0,0c-0.1-0.2-0.3-0.3-0.3-0.5c-0.1-0.1-0.1-0.3,0-0.4s0.1-0.3,0.2-0.4
		l0,0c0.2-0.2,0.4-0.2,0.6-0.2s0.4,0.2,0.7,0.4l0.8,0.9l-0.5,0.4l-0.9-1c-0.1-0.1-0.2-0.1-0.3-0.1s-0.2,0-0.3,0.1
		c-0.1,0.1-0.1,0.2-0.1,0.3s0,0.2,0.1,0.3l0.8,1L18.6,16.3z"/>
	<path class="st0" d="M21.4,14c-0.2,0.1-0.3,0.2-0.5,0.3c-0.1,0-0.3,0-0.4,0c-0.1-0.1-0.3-0.2-0.4-0.3l-1.2-1.5l0.5-0.4l1.2,1.5
		c0.1,0.1,0.1,0.1,0.2,0.1s0.2,0,0.2-0.1l0.3-0.2l0.3,0.4L21.4,14z M19.3,13.5L19,13.1l1.2-1l0.3,0.4L19.3,13.5z"/>
	<path class="st0" d="M22.8,13c-0.2,0.1-0.3,0.2-0.5,0.2s-0.3,0-0.5,0c-0.1,0-0.3-0.1-0.4-0.1c-0.1-0.1-0.2-0.2-0.3-0.3l-0.1-0.1
		c-0.1-0.1-0.2-0.3-0.2-0.4c0-0.1,0-0.3,0-0.4c0-0.1,0.1-0.3,0.2-0.4s0.2-0.3,0.3-0.4c0.2-0.1,0.3-0.2,0.5-0.2c0.2,0,0.3,0,0.5,0
		c0.1,0,0.3,0.1,0.4,0.1c0.1,0.1,0.2,0.2,0.3,0.3l0.1,0.1c0.1,0.1,0.2,0.3,0.2,0.4s0,0.3,0,0.4s-0.1,0.3-0.2,0.4
		C23.1,12.7,23,12.9,22.8,13z M22.5,12.5c0.1-0.1,0.2-0.2,0.2-0.2c0-0.1,0-0.2,0-0.3s-0.1-0.2-0.1-0.3c-0.1-0.1-0.2-0.2-0.3-0.2
		c-0.1,0-0.2-0.1-0.3-0.1c-0.1,0-0.2,0-0.3,0.1c-0.1,0.1-0.2,0.2-0.2,0.2s0,0.2,0,0.3c0,0.1,0.1,0.2,0.1,0.3
		c0.1,0.1,0.1,0.2,0.2,0.2c0.1,0.1,0.2,0.1,0.3,0.1C22.3,12.6,22.4,12.6,22.5,12.5z"/>
	<path class="st0" d="M24.1,12l-1.2-1.8l0.4-0.3l0.5,0.8l0,0c-0.2-0.3-0.2-0.5-0.2-0.7c0-0.2,0.1-0.4,0.3-0.5l0.1,0l0.3,0.5
		l-0.1,0.1c-0.1,0.1-0.2,0.2-0.3,0.3c0,0.1,0,0.3,0.1,0.4l0.6,0.9L24.1,12z"/>
</g>
</svg>
