<?xml version="1.0" encoding="UTF-8"?><svg id="a" xmlns="http://www.w3.org/2000/svg" viewBox="0 0 83.6 83.6"><defs><style>.b{fill:none;stroke:#fff;stroke-miterlimit:10;stroke-width:7px;}.c{fill:#101010;font-family:Sora-Bold, Sora;font-size:3px;}</style></defs><circle class="b" cx="41.8" cy="41.8" r="38.3"/><text class="c" transform="translate(18.11 73.05) rotate(35.46)"><tspan x="0" y="0">H</tspan></text><text class="c" transform="translate(20.14 74.49) rotate(32.23)"><tspan x="0" y="0">T</tspan></text><text class="c" transform="translate(21.78 75.54) rotate(28.6)"><tspan x="0" y="0">M</tspan></text><text class="c" transform="translate(24.45 76.97) rotate(25.07)"><tspan x="0" y="0">L</tspan></text><text class="c" transform="translate(26.01 77.69) rotate(22.88)"><tspan x="0" y="0">/</tspan></text><text class="c" transform="translate(27.2 78.21) rotate(20.11)"><tspan x="0" y="0">C</tspan></text><text class="c" transform="translate(29.53 79.05) rotate(16.74)"><tspan x="0" y="0">S</tspan></text><text class="c" transform="translate(31.53 79.66) rotate(13.67)"><tspan x="0" y="0">S</tspan></text><text class="c" transform="translate(33.53 80.13) rotate(11.66)"><tspan x="0" y="0"> </tspan></text><text class="c" transform="translate(34.19 80.26) rotate(10.67)"><tspan x="0" y="0"> </tspan></text><text class="c" transform="translate(34.82 80.38) rotate(9.72)"><tspan x="0" y="0"> </tspan></text><text class="c" transform="translate(35.46 80.49) rotate(8.78)"><tspan x="0" y="0"> </tspan></text><text class="c" transform="translate(36.13 80.59) rotate(7.78)"><tspan x="0" y="0"> </tspan></text><text class="c" transform="translate(36.77 80.68) rotate(6.84)"><tspan x="0" y="0"> </tspan></text><text class="c" transform="translate(37.42 80.76) rotate(5.89)"><tspan x="0" y="0"> </tspan></text><text class="c" transform="translate(38.07 80.83) rotate(4.94)"><tspan x="0" y="0"> </tspan></text><text class="c" transform="translate(38.77 80.91) rotate(2.27)"><tspan x="0" y="0">M</tspan></text><text class="c" transform="translate(41.77 81.01) rotate(-1.18)"><tspan x="0" y="0">y</tspan></text><text class="c" transform="translate(43.57 80.97) rotate(-3.99)"><tspan x="0" y="0">S</tspan></text><text class="c" transform="translate(45.66 80.83) rotate(-7.47)"><tspan x="0" y="0">Q</tspan></text><text class="c" transform="translate(48.31 80.47) rotate(-10.71)"><tspan x="0" y="0">L</tspan></text><text class="c" transform="translate(49.99 80.14) rotate(-12.46)"><tspan x="0" y="0"> </tspan></text><text class="c" transform="translate(50.64 80) rotate(-13.44)"><tspan x="0" y="0"> </tspan></text><text class="c" transform="translate(51.29 79.84) rotate(-14.43)"><tspan x="0" y="0"> </tspan></text><text class="c" transform="translate(51.91 79.69) rotate(-15.37)"><tspan x="0" y="0"> </tspan></text><text class="c" transform="translate(52.55 79.51) rotate(-16.34)"><tspan x="0" y="0"> </tspan></text><text class="c" transform="translate(53.18 79.32) rotate(-17.32)"><tspan x="0" y="0"> </tspan></text><text class="c" transform="translate(53.82 79.13) rotate(-18.3)"><tspan x="0" y="0"> </tspan></text><text class="c" transform="translate(54.42 78.93) rotate(-19.23)"><tspan x="0" y="0"> </tspan></text><text class="c" transform="translate(55.04 78.71) rotate(-20.2)"><tspan x="0" y="0"> </tspan></text><text class="c" transform="translate(55.69 78.48) rotate(-22.23)"><tspan x="0" y="0">P</tspan></text><text class="c" transform="translate(57.63 77.69) rotate(-25.6)"><tspan x="0" y="0">H</tspan></text><text class="c" transform="translate(59.87 76.61) rotate(-28.95)"><tspan x="0" y="0">P</tspan></text><text class="c" transform="translate(61.68 75.59) rotate(-30.98)"><tspan x="0" y="0"> </tspan></text><text class="c" transform="translate(62.24 75.26) rotate(-31.93)"><tspan x="0" y="0"> </tspan></text><text class="c" transform="translate(62.79 74.92) rotate(-32.88)"><tspan x="0" y="0"> </tspan></text><text class="c" transform="translate(63.33 74.56) rotate(-33.83)"><tspan x="0" y="0"> </tspan></text><text class="c" transform="translate(63.9 74.19) rotate(-34.82)"><tspan x="0" y="0"> </tspan></text><text class="c" transform="translate(64.43 73.81) rotate(-35.76)"><tspan x="0" y="0"> </tspan></text><text class="c" transform="translate(64.95 73.43) rotate(-36.71)"><tspan x="0" y="0"> </tspan></text><text class="c" transform="translate(65.47 73.05) rotate(-37.65)"><tspan x="0" y="0"> </tspan></text><text class="c" transform="translate(66.01 72.63) rotate(-38.64)"><tspan x="0" y="0"> </tspan></text><text class="c" transform="translate(66.54 72.22) rotate(-40.56)"><tspan x="0" y="0">J</tspan></text><text class="c" transform="translate(68.06 70.93) rotate(-43.51)"><tspan x="0" y="0">S</tspan></text><text class="c" transform="translate(69.55 69.5) rotate(-45.94)"><tspan x="0" y="0">/</tspan></text><text class="c" transform="translate(70.45 68.57) rotate(-48.33)"><tspan x="0" y="0">J</tspan></text><text class="c" transform="translate(71.8 67.07) rotate(-51.75)"><tspan x="0" y="0">Q</tspan></text><text class="c" transform="translate(73.45 64.95) rotate(-55.18)"><tspan x="0" y="0">u</tspan></text><text class="c" transform="translate(74.6 63.3) rotate(-58.07)"><tspan x="0" y="0">e</tspan></text><text class="c" transform="translate(75.63 61.63) rotate(-60.49)"><tspan x="0" y="0">r</tspan></text><text class="c" transform="translate(76.31 60.43) rotate(-62.84)"><tspan x="0" y="0">y</tspan></text><text class="c" transform="translate(77.1 58.86) rotate(-64.62)"><tspan x="0" y="0"> </tspan></text><text class="c" transform="translate(77.38 58.27) rotate(-65.58)"><tspan x="0" y="0"> </tspan></text><text class="c" transform="translate(77.65 57.68) rotate(-66.55)"><tspan x="0" y="0"> </tspan></text><text class="c" transform="translate(77.91 57.07) rotate(-67.51)"><tspan x="0" y="0"> </tspan></text><text class="c" transform="translate(78.17 56.47) rotate(-68.48)"><tspan x="0" y="0"> </tspan></text><text class="c" transform="translate(78.41 55.85) rotate(-69.45)"><tspan x="0" y="0"> </tspan></text><text class="c" transform="translate(78.64 55.24) rotate(-70.42)"><tspan x="0" y="0"> </tspan></text><text class="c" transform="translate(78.85 54.64) rotate(-71.35)"><tspan x="0" y="0"> </tspan></text><text class="c" transform="translate(79.06 54.02) rotate(-72.32)"><tspan x="0" y="0"> </tspan></text><text class="c" transform="translate(79.29 53.36) rotate(-74.72)"><tspan x="0" y="0">G</tspan></text><text class="c" transform="translate(79.96 50.85) rotate(-78.21)"><tspan x="0" y="0">o</tspan></text><text class="c" transform="translate(80.4 48.75) rotate(-81.36)"><tspan x="0" y="0">o</tspan></text><text class="c" transform="translate(80.72 46.65) rotate(-84.47)"><tspan x="0" y="0">g</tspan></text><text class="c" transform="translate(80.91 44.54) rotate(-86.73)"><tspan x="0" y="0">l</tspan></text><text class="c" transform="translate(80.97 43.56) rotate(-88.82)"><tspan x="0" y="0">e</tspan></text><text class="c" transform="translate(81.02 41.58) rotate(-92)"><tspan x="0" y="0">A</tspan></text><text class="c" transform="translate(80.93 39.18) rotate(-95.3)"><tspan x="0" y="0">d</tspan></text><text class="c" transform="translate(80.72 37.02) rotate(-98.15)"><tspan x="0" y="0">s</tspan></text><text class="c" transform="translate(80.47 35.32) rotate(-99.9)"><tspan x="0" y="0"> </tspan></text><text class="c" transform="translate(80.35 34.66) rotate(-100.89)"><tspan x="0" y="0"> </tspan></text><text class="c" transform="translate(80.23 34.03) rotate(-101.83)"><tspan x="0" y="0"> </tspan></text><text class="c" transform="translate(80.09 33.37) rotate(-102.82)"><tspan x="0" y="0"> </tspan></text><text class="c" transform="translate(79.95 32.72) rotate(-103.8)"><tspan x="0" y="0"> </tspan></text><text class="c" transform="translate(79.79 32.1) rotate(-104.74)"><tspan x="0" y="0"> </tspan></text><text class="c" transform="translate(79.62 31.46) rotate(-105.72)"><tspan x="0" y="0"> </tspan></text><text class="c" transform="translate(79.44 30.82) rotate(-106.7)"><tspan x="0" y="0"> </tspan></text><text class="c" transform="translate(79.26 30.21) rotate(-107.63)"><tspan x="0" y="0"> </tspan></text><text class="c" transform="translate(79.07 29.52) rotate(-110.37)"><tspan x="0" y="0">M</tspan></text><text class="c" transform="translate(78 26.71) rotate(-114.02)"><tspan x="0" y="0">e</tspan></text><text class="c" transform="translate(77.2 24.93) rotate(-116.47)"><tspan x="0" y="0">t</tspan></text><text class="c" transform="translate(76.6 23.71) rotate(-118.82)"><tspan x="0" y="0">a</tspan></text><text class="c" transform="translate(75.71 22.09) rotate(-121.93)"><tspan x="0" y="0">A</tspan></text><text class="c" transform="translate(74.43 20.04) rotate(-125.29)"><tspan x="0" y="0">d</tspan></text><text class="c" transform="translate(73.15 18.25) rotate(-128.16)"><tspan x="0" y="0">s</tspan></text><text class="c" transform="translate(72.1 16.93) rotate(-129.87)"><tspan x="0" y="0"> </tspan></text><text class="c" transform="translate(71.67 16.41) rotate(-130.86)"><tspan x="0" y="0"> </tspan></text><text class="c" transform="translate(71.24 15.92) rotate(-131.8)"><tspan x="0" y="0"> </tspan></text><text class="c" transform="translate(70.81 15.44) rotate(-132.74)"><tspan x="0" y="0"> </tspan></text><text class="c" transform="translate(70.35 14.94) rotate(-133.72)"><tspan x="0" y="0"> </tspan></text><text class="c" transform="translate(69.91 14.47) rotate(-134.66)"><tspan x="0" y="0"> </tspan></text><text class="c" transform="translate(69.45 14.01) rotate(-135.6)"><tspan x="0" y="0"> </tspan></text><text class="c" transform="translate(68.97 13.54) rotate(-136.58)"><tspan x="0" y="0"> </tspan></text><text class="c" transform="translate(68.5 13.1) rotate(-137.52)"><tspan x="0" y="0"> </tspan></text><text class="c" transform="translate(68.01 12.64) rotate(-139.49)"><tspan x="0" y="0">S</tspan></text><text class="c" transform="translate(66.43 11.29) rotate(-142.35)"><tspan x="0" y="0">E</tspan></text><text class="c" transform="translate(64.95 10.13) rotate(-145.91)"><tspan x="0" y="0">M</tspan></text><text class="c" transform="translate(62.45 8.47) rotate(-148.63)"><tspan x="0" y="0"> </tspan></text><text class="c" transform="translate(61.89 8.13) rotate(-149.58)"><tspan x="0" y="0"> </tspan></text><text class="c" transform="translate(61.33 7.8) rotate(-150.53)"><tspan x="0" y="0"> </tspan></text><text class="c" transform="translate(60.76 7.48) rotate(-151.49)"><tspan x="0" y="0"> </tspan></text><text class="c" transform="translate(60.16 7.16) rotate(-152.48)"><tspan x="0" y="0"> </tspan></text><text class="c" transform="translate(59.58 6.85) rotate(-153.44)"><tspan x="0" y="0"> </tspan></text><text class="c" transform="translate(59 6.56) rotate(-154.4)"><tspan x="0" y="0"> </tspan></text><text class="c" transform="translate(58.41 6.28) rotate(-155.37)"><tspan x="0" y="0"> </tspan></text><text class="c" transform="translate(57.81 6.01) rotate(-156.33)"><tspan x="0" y="0"> </tspan></text><text class="c" transform="translate(57.18 5.71) rotate(-158.61)"><tspan x="0" y="0">A</tspan></text><text class="c" transform="translate(54.95 4.84) rotate(-161.97)"><tspan x="0" y="0">d</tspan></text><text class="c" transform="translate(52.85 4.16) rotate(-165.17)"><tspan x="0" y="0">o</tspan></text><text class="c" transform="translate(50.79 3.62) rotate(-168.35)"><tspan x="0" y="0">b</tspan></text><text class="c" transform="translate(48.63 3.18) rotate(-171.4)"><tspan x="0" y="0">e</tspan></text><text class="c" transform="translate(46.71 2.89) rotate(-174.34)"><tspan x="0" y="0">S</tspan></text><text class="c" transform="translate(44.64 2.69) rotate(-177.3)"><tspan x="0" y="0">u</tspan></text><text class="c" transform="translate(42.65 2.61) rotate(-179.07)"><tspan x="0" y="0">i</tspan></text><text class="c" transform="translate(41.6 2.59) rotate(178.78)"><tspan x="0" y="0">t</tspan></text><text class="c" transform="translate(40.25 2.62) rotate(176.42)"><tspan x="0" y="0">e</tspan></text><text class="c" transform="translate(38.32 2.75) rotate(174.52)"><tspan x="0" y="0"> </tspan></text><text class="c" transform="translate(37.67 2.81) rotate(173.57)"><tspan x="0" y="0"> </tspan></text><text class="c" transform="translate(37.03 2.89) rotate(172.62)"><tspan x="0" y="0"> </tspan></text><text class="c" transform="translate(36.39 2.97) rotate(171.67)"><tspan x="0" y="0"> </tspan></text><text class="c" transform="translate(35.72 3.07) rotate(170.68)"><tspan x="0" y="0"> </tspan></text><text class="c" transform="translate(35.08 3.17) rotate(169.74)"><tspan x="0" y="0"> </tspan></text><text class="c" transform="translate(34.42 3.29) rotate(168.75)"><tspan x="0" y="0"> </tspan></text><text class="c" transform="translate(33.79 3.42) rotate(167.81)"><tspan x="0" y="0"> </tspan></text><text class="c" transform="translate(33.14 3.56) rotate(166.82)"><tspan x="0" y="0"> </tspan></text><text class="c" transform="translate(32.44 3.69) rotate(163.88)"><tspan x="0" y="0">W</tspan></text><text class="c" transform="translate(29.34 4.61) rotate(159.98)"><tspan x="0" y="0">o</tspan></text><text class="c" transform="translate(27.34 5.35) rotate(157.42)"><tspan x="0" y="0">r</tspan></text><text class="c" transform="translate(26.14 5.84) rotate(154.88)"><tspan x="0" y="0">d</tspan></text><text class="c" transform="translate(24.15 6.77) rotate(151.66)"><tspan x="0" y="0">p</tspan></text><text class="c" transform="translate(22.22 7.83) rotate(149.06)"><tspan x="0" y="0">r</tspan></text><text class="c" transform="translate(21.08 8.5) rotate(146.69)"><tspan x="0" y="0">e</tspan></text><text class="c" transform="translate(19.47 9.57) rotate(144.02)"><tspan x="0" y="0">s</tspan></text><text class="c" transform="translate(18.07 10.59) rotate(141.49)"><tspan x="0" y="0">s</tspan></text><text class="c" transform="translate(16.72 11.67) rotate(139.74)"><tspan x="0" y="0"> </tspan></text><text class="c" transform="translate(16.23 12.09) rotate(138.8)"><tspan x="0" y="0"> </tspan></text><text class="c" transform="translate(15.72 12.53) rotate(137.82)"><tspan x="0" y="0"> </tspan></text><text class="c" transform="translate(15.24 12.97) rotate(136.88)"><tspan x="0" y="0"> </tspan></text><text class="c" transform="translate(14.77 13.41) rotate(135.94)"><tspan x="0" y="0"> </tspan></text><text class="c" transform="translate(14.3 13.86) rotate(135)"><tspan x="0" y="0"> </tspan></text><text class="c" transform="translate(13.83 14.34) rotate(134.02)"><tspan x="0" y="0"> </tspan></text><text class="c" transform="translate(13.38 14.8) rotate(133.08)"><tspan x="0" y="0"> </tspan></text><text class="c" transform="translate(12.94 15.27) rotate(132.14)"><tspan x="0" y="0"> </tspan></text><text class="c" transform="translate(12.46 15.78) rotate(130.13)"><tspan x="0" y="0">P</tspan></text><text class="c" transform="translate(11.13 17.38) rotate(127.65)"><tspan x="0" y="0">r</tspan></text><text class="c" transform="translate(10.32 18.42) rotate(125.29)"><tspan x="0" y="0">e</tspan></text><text class="c" transform="translate(9.19 20.02) rotate(122.58)"><tspan x="0" y="0">s</tspan></text><text class="c" transform="translate(8.27 21.47) rotate(120.33)"><tspan x="0" y="0">t</tspan></text><text class="c" transform="translate(7.58 22.64) rotate(117.99)"><tspan x="0" y="0">a</tspan></text><text class="c" transform="translate(6.71 24.29) rotate(115.33)"><tspan x="0" y="0">s</tspan></text><text class="c" transform="translate(5.96 25.86) rotate(112.58)"><tspan x="0" y="0">h</tspan></text><text class="c" transform="translate(5.19 27.73) rotate(109.54)"><tspan x="0" y="0">o</tspan></text><text class="c" transform="translate(4.48 29.74) rotate(106.35)"><tspan x="0" y="0">p</tspan></text><text class="c" transform="translate(3.88 31.82) rotate(104.25)"><tspan x="0" y="0"> </tspan></text><text class="c" transform="translate(3.72 32.46) rotate(103.27)"><tspan x="0" y="0"> </tspan></text><text class="c" transform="translate(3.56 33.11) rotate(102.28)"><tspan x="0" y="0"> </tspan></text><text class="c" transform="translate(3.43 33.74) rotate(101.34)"><tspan x="0" y="0"> </tspan></text><text class="c" transform="translate(3.3 34.4) rotate(100.35)"><tspan x="0" y="0"> </tspan></text><text class="c" transform="translate(3.18 35.03) rotate(99.41)"><tspan x="0" y="0"> </tspan></text><text class="c" transform="translate(3.07 35.67) rotate(98.46)"><tspan x="0" y="0"> </tspan></text><text class="c" transform="translate(2.98 36.34) rotate(97.47)"><tspan x="0" y="0"> </tspan></text><text class="c" transform="translate(2.89 36.99) rotate(96.52)"><tspan x="0" y="0"> </tspan></text><text class="c" transform="translate(2.8 37.66) rotate(94.53)"><tspan x="0" y="0">P</tspan></text><text class="c" transform="translate(2.65 39.72) rotate(92.27)"><tspan x="0" y="0">i</tspan></text><text class="c" transform="translate(2.58 40.82) rotate(89.07)"><tspan x="0" y="0">n</tspan></text><text class="c" transform="translate(2.6 42.82) rotate(87.19)"><tspan x="0" y="0">e</tspan></text><text class="c" transform="translate(2.7 44.78) rotate(84.2)"><tspan x="0" y="0">g</tspan></text><text class="c" transform="translate(2.92 46.9) rotate(81.67)"><tspan x="0" y="0">r</tspan></text><text class="c" transform="translate(3.11 48.22) rotate(79.15)"><tspan x="0" y="0">o</tspan></text><text class="c" transform="translate(3.49 50.26) rotate(75.57)"><tspan x="0" y="0">w</tspan></text><text class="c" transform="translate(4.23 53.01) rotate(72.94)"><tspan x="0" y="0"> </tspan></text><text class="c" transform="translate(4.42 53.64) rotate(71.97)"><tspan x="0" y="0"> </tspan></text><text class="c" transform="translate(4.62 54.27) rotate(70.99)"><tspan x="0" y="0"> </tspan></text><text class="c" transform="translate(4.83 54.87) rotate(70.07)"><tspan x="0" y="0"> </tspan></text><text class="c" transform="translate(5.05 55.49) rotate(69.1)"><tspan x="0" y="0"> </tspan></text><text class="c" transform="translate(5.29 56.1) rotate(68.13)"><tspan x="0" y="0"> </tspan></text><text class="c" transform="translate(5.53 56.71) rotate(67.16)"><tspan x="0" y="0"> </tspan></text><text class="c" transform="translate(5.79 57.34) rotate(65.32)"><tspan x="0" y="0">E</tspan></text><text class="c" transform="translate(6.57 59.01) rotate(63.23)"><tspan x="0" y="0">l</tspan></text><text class="c" transform="translate(7.02 59.93) rotate(61.05)"><tspan x="0" y="0">e</tspan></text><text class="c" transform="translate(7.97 61.66) rotate(57.38)"><tspan x="0" y="0">m</tspan></text><text class="c" transform="translate(9.62 64.22) rotate(53.72)"><tspan x="0" y="0">e</tspan></text><text class="c" transform="translate(10.77 65.77) rotate(50.85)"><tspan x="0" y="0">n</tspan></text><text class="c" transform="translate(12.06 67.34) rotate(48.37)"><tspan x="0" y="0">t</tspan></text><text class="c" transform="translate(12.96 68.37) rotate(45.85)"><tspan x="0" y="0">o</tspan></text><text class="c" transform="translate(14.44 69.88) rotate(43.33)"><tspan x="0" y="0">r</tspan></text></svg>